<svg xmlns="http://www.w3.org/2000/svg" xmlns:xlink="http://www.w3.org/1999/xlink" width="50" zoomAndPan="magnify" viewBox="0 0 37.5 37.499999" height="50" preserveAspectRatio="xMidYMid meet" version="1.0"><defs><g/><clipPath id="00037c7200"><path d="M 0 0 L 37.007812 0 L 37.007812 37.007812 L 0 37.007812 Z M 0 0 " clip-rule="nonzero"/></clipPath></defs><g clip-path="url(#00037c7200)"><path fill="#ffffff" d="M 0 0 L 37.5 0 L 37.5 45 L 0 45 Z M 0 0 " fill-opacity="1" fill-rule="nonzero"/><path fill="#ffffff" d="M 0 0 L 37.5 0 L 37.5 37.5 L 0 37.5 Z M 0 0 " fill-opacity="1" fill-rule="nonzero"/><path fill="#3c78d8" d="M 0 0 L 37.5 0 L 37.5 37.5 L 0 37.5 Z M 0 0 " fill-opacity="1" fill-rule="nonzero"/></g><g fill="#ffffff" fill-opacity="1"><g transform="translate(6.938008, 29.662497)"><g><path d="M 11.6875 0.125 C 9.632812 0.125 7.851562 -0.242188 6.34375 -0.984375 C 4.832031 -1.734375 3.671875 -2.796875 2.859375 -4.171875 C 2.054688 -5.554688 1.65625 -7.160156 1.65625 -8.984375 C 1.65625 -11.503906 2.128906 -13.742188 3.078125 -15.703125 C 4.035156 -17.671875 5.332031 -19.191406 6.96875 -20.265625 C 8.601562 -21.335938 10.414062 -21.875 12.40625 -21.875 C 14.257812 -21.875 15.664062 -21.394531 16.625 -20.4375 C 17.59375 -19.488281 18.078125 -18.234375 18.078125 -16.671875 C 18.078125 -15.617188 17.890625 -14.773438 17.515625 -14.140625 C 17.148438 -13.503906 16.625 -13.1875 15.9375 -13.1875 C 15.457031 -13.1875 15.078125 -13.296875 14.796875 -13.515625 C 14.523438 -13.742188 14.390625 -14.070312 14.390625 -14.5 C 14.390625 -14.65625 14.425781 -14.9375 14.5 -15.34375 C 14.601562 -15.863281 14.65625 -16.28125 14.65625 -16.59375 C 14.65625 -18.15625 13.820312 -18.9375 12.15625 -18.9375 C 11.019531 -18.9375 9.9375 -18.566406 8.90625 -17.828125 C 7.875 -17.085938 7.035156 -16 6.390625 -14.5625 C 5.753906 -13.125 5.4375 -11.414062 5.4375 -9.4375 C 5.4375 -7.375 6.015625 -5.78125 7.171875 -4.65625 C 8.328125 -3.53125 10.03125 -2.96875 12.28125 -2.96875 C 13.394531 -2.96875 14.523438 -3.109375 15.671875 -3.390625 C 16.816406 -3.671875 18.085938 -4.101562 19.484375 -4.6875 C 19.734375 -4.789062 19.945312 -4.84375 20.125 -4.84375 C 20.394531 -4.84375 20.597656 -4.738281 20.734375 -4.53125 C 20.878906 -4.332031 20.953125 -4.066406 20.953125 -3.734375 C 20.953125 -2.691406 20.382812 -1.921875 19.25 -1.421875 C 18.019531 -0.890625 16.75 -0.5 15.4375 -0.25 C 14.125 0 12.875 0.125 11.6875 0.125 Z M 11.6875 0.125 "/></g></g></g></svg>