<svg width="1920" height="926" viewBox="0 0 1920 926" fill="none" xmlns="http://www.w3.org/2000/svg">
<path d="M1920 264.147C1920 394.106 1920 855.172 1920 985.165C1274.01 985.165 628.012 985.165 -17.9813 985.165C-17.9813 915.132 -20 508.804 -20 438.771C-18.8141 437.482 -15.3385 442.027 -13.5427 441.925C-7.38293 433.142 14.2565 437.796 27.9448 436.575C45.8006 434.981 65.1044 430.519 82.9553 430.519C97.1179 428.857 110.177 427.201 124.339 425.472C143.991 423.064 163.803 420.92 183.387 417.902C210.56 413.662 237.603 409.396 264.641 404.275C312.787 395.152 360.197 384.915 407.971 373.994C452.966 363.684 497.431 354.359 542.156 342.963C578.443 333.705 614.561 323.87 650.747 314.306C653.492 313.594 656 312.905 658.947 312.068C683.647 305.047 708.584 298.739 733.284 291.719C737.214 290.6 739.755 288.633 741.382 284.97C744.024 278.967 747.684 273.473 750.597 267.606C751.648 265.503 752.8 262.96 755.51 263.061C758.56 263.163 759.203 266.148 760.051 268.454C761.27 271.777 762.456 275.101 763.405 278.493C764.455 282.223 766.522 283.037 770.215 282.02C787.698 277.136 805.215 272.422 822.732 267.776C867.05 256.007 911.367 244.273 955.922 233.454C1006.34 221.211 1056.96 209.782 1107.88 199.947C1142.65 193.232 1177.58 187.365 1212.65 182.481C1235.75 179.259 1258.89 176.512 1282.14 174.444C1297.18 173.121 1312.19 171.629 1327.3 171.018C1334.49 170.747 1341.67 169.526 1348.89 170.543C1351.22 171.357 1352.1 173.29 1352.68 175.495C1352.99 176.58 1353.12 178.004 1354.61 178.072C1355.76 178.106 1356.17 176.885 1356.61 176.037C1360.17 169.526 1364.64 163.693 1369.59 158.199C1370.94 156.672 1372.23 154.943 1374.57 155.418C1376.94 155.892 1378.36 157.419 1378.43 159.996C1373.72 167.864 1367.93 174.986 1363.42 182.99C1358.95 190.926 1358.75 190.824 1365.11 197.743C1365.86 198.184 1366.64 198.556 1367.32 199.099C1367.83 199.438 1368.3 199.811 1368.81 200.15C1369.28 200.456 1369.76 200.795 1370.23 201.134C1370.71 201.405 1371.18 201.711 1371.65 201.982C1371.99 202.118 1372.33 202.287 1372.67 202.423C1373.21 202.626 1373.72 202.83 1374.23 203.033C1375.14 203.372 1376.02 203.745 1376.94 204.051C1377.52 204.22 1378.06 204.39 1378.63 204.559C1379.24 204.695 1379.82 204.865 1380.4 205.034C1380.84 205.102 1381.24 205.204 1381.65 205.305C1382.29 205.441 1382.97 205.509 1383.61 205.645C1386.63 206.221 1389.65 206.221 1392.63 205.509C1393.27 205.305 1393.95 205.17 1394.63 205.068C1395.27 204.898 1395.91 204.797 1396.56 204.661C1397.37 204.492 1398.18 204.288 1398.96 203.983C1399.91 203.644 1400.86 203.305 1401.81 202.999C1402.32 202.796 1402.86 202.626 1403.4 202.423C1403.71 202.253 1404.08 202.151 1404.38 202.016C1404.86 201.812 1405.33 201.609 1405.81 201.338C1406.08 201.134 1406.38 200.964 1406.69 200.761C1407.13 200.422 1407.57 200.117 1408.01 199.777C1408.79 199.167 1409.57 198.59 1410.42 198.082C1410.96 197.777 1411.53 197.539 1412.14 197.403C1412.75 197.268 1413.4 197.268 1414.01 197.369C1414.41 197.437 1414.79 197.573 1415.16 197.743C1415.53 197.878 1415.87 198.082 1416.21 198.285C1416.55 198.455 1416.89 198.658 1417.19 198.862C1417.53 199.031 1417.84 199.201 1418.14 199.404C1418.48 199.54 1418.78 199.743 1419.09 199.913C1419.43 200.049 1419.73 200.252 1420.04 200.456C1420.51 200.693 1420.99 200.998 1421.43 201.304C1421.9 201.575 1422.31 201.88 1422.75 202.151C1423.19 202.423 1423.6 202.694 1424.04 202.965C1424.34 203.101 1424.65 203.305 1424.92 203.474C1425.39 203.712 1425.83 203.949 1426.31 204.186C1426.64 204.322 1426.98 204.492 1427.32 204.661C1427.9 204.899 1428.44 205.204 1428.95 205.509C1429.8 205.984 1430.57 206.492 1431.32 207.171C1431.96 207.747 1432.44 208.426 1432.84 209.206C1433.96 211.953 1433.62 214.835 1433.62 217.684C1433.69 237.863 1433.59 258.008 1433.69 278.187C1433.76 278.899 1433.86 279.612 1434.03 280.29C1434.3 281.375 1435.18 281.816 1436.1 282.189C1436.64 282.46 1437.18 282.732 1437.76 282.935C1439.32 283.512 1440.88 284.122 1442.4 284.801C1442.98 285.038 1443.52 285.309 1444.09 285.581C1444.47 285.716 1444.84 285.886 1445.21 286.089C1445.79 286.327 1446.33 286.564 1446.91 286.801C1447.85 287.174 1448.84 287.582 1449.79 287.955C1450.36 288.158 1450.94 288.395 1451.51 288.633C1452.63 289.108 1453.78 289.616 1454.94 290.023C1455.55 290.227 1456.12 290.464 1456.7 290.702C1457.88 291.176 1459.07 291.651 1460.29 292.058C1460.93 292.228 1461.58 292.465 1462.22 292.736C1469.4 295.687 1476.62 298.57 1483.7 301.724C1484.31 301.961 1484.92 302.266 1485.53 302.538C1486.14 302.741 1486.72 303.013 1487.33 303.25C1487.94 303.453 1488.51 303.691 1489.12 303.928C1490.88 304.674 1492.65 305.488 1494.48 306.167C1495.12 306.37 1495.73 306.607 1496.34 306.879C1499.66 308.371 1503.08 309.626 1506.44 311.05C1507.11 311.288 1507.72 311.559 1508.37 311.864C1510.57 312.882 1512.5 314.204 1513.79 316.341C1514.2 316.917 1514.5 317.528 1514.81 318.138C1515.48 319.495 1516.13 320.885 1516.67 322.31C1516.91 322.852 1517.08 323.429 1517.28 323.971C1517.45 324.311 1517.55 324.65 1517.65 324.989C1517.85 325.464 1518.02 325.972 1518.26 326.447C1518.43 326.752 1518.57 327.058 1518.74 327.363C1518.97 327.804 1519.21 328.279 1519.48 328.754C1519.68 329.059 1519.85 329.398 1520.02 329.703C1520.33 330.212 1520.57 330.721 1520.77 331.297C1521.28 332.721 1521.45 334.112 1520.57 335.468C1520.23 335.943 1519.79 336.384 1519.31 336.723C1519.04 336.961 1518.7 337.164 1518.4 337.368C1518.13 337.571 1517.82 337.775 1517.52 337.944C1517.38 338.046 1517.21 338.148 1517.08 338.249C1516.84 338.487 1516.53 338.69 1516.3 338.894C1516.19 339.03 1516.06 339.131 1515.92 339.233C1515.72 339.504 1515.45 339.742 1515.21 340.013C1515.11 340.149 1514.97 340.284 1514.87 340.42C1514.67 340.725 1514.47 341.03 1514.23 341.336C1514.13 341.505 1514.03 341.641 1513.92 341.81C1513.72 342.184 1513.52 342.523 1513.28 342.862C1512.13 344.557 1511.25 346.389 1510.81 348.424C1510.64 349.306 1510.5 350.221 1510.43 351.103C1509.93 354.427 1510.47 357.682 1511.15 360.904C1511.28 361.752 1511.42 362.634 1511.59 363.482C1511.72 363.855 1511.79 364.262 1511.86 364.669C1511.99 365.211 1512.13 365.788 1512.3 366.33C1512.43 366.67 1512.57 367.009 1512.67 367.348C1512.87 367.823 1513.08 368.331 1513.28 368.806C1513.48 369.112 1513.62 369.417 1513.79 369.722C1514.06 370.163 1514.33 370.604 1514.64 371.045C1514.97 371.485 1515.25 371.926 1515.55 372.367C1515.89 372.808 1516.19 373.283 1516.5 373.724C1516.94 374.334 1517.38 374.945 1517.89 375.521C1518.19 375.793 1518.43 376.098 1518.7 376.403C1518.84 376.539 1518.97 376.708 1519.14 376.844C1519.48 377.149 1519.75 377.454 1520.02 377.793C1522.26 380.303 1524.66 382.677 1527.17 384.916C1527.54 385.153 1527.88 385.458 1528.22 385.763C1528.39 385.899 1528.56 386.035 1528.76 386.17C1529.14 386.408 1529.51 386.713 1529.85 386.984C1530.59 387.527 1531.24 388.205 1531.98 388.748C1535.13 390.308 1538.12 392.275 1541.47 393.428C1549.43 396.175 1557.4 397.599 1565.39 393.462C1569.29 391.427 1572.51 392.58 1576.03 395.158C1590.8 405.942 1605.91 416.218 1624.21 420.39C1630.99 421.95 1631.05 421.984 1633.8 415.472C1646.4 385.763 1658.13 355.681 1670.9 326.04C1672.56 322.174 1672.29 319.02 1669.51 315.9C1661.04 306.472 1651.42 298.502 1640.34 292.329C1630.51 286.869 1621.03 280.765 1609.74 278.526C1605.61 277.712 1601.48 276.729 1597.34 276.593C1591.48 276.424 1587.45 273.948 1584.67 268.996C1584.16 268.081 1583.38 267.47 1582.64 266.792C1580.64 265.334 1579.18 263.299 1577.32 261.671C1576.98 261.4 1576.71 261.128 1576.44 260.823C1576.3 260.687 1576.17 260.552 1576 260.416C1575.69 260.179 1575.42 259.908 1575.15 259.636C1575.01 259.534 1574.88 259.365 1574.74 259.263C1574.44 259.06 1574.17 258.788 1573.9 258.551C1573.35 258.11 1572.81 257.635 1572.24 257.194C1571.93 257.025 1571.66 256.787 1571.39 256.584C1571.25 256.482 1571.12 256.38 1570.98 256.279C1570.68 256.109 1570.44 255.906 1570.17 255.702C1569.86 255.532 1569.59 255.363 1569.32 255.16C1568.88 254.922 1568.47 254.651 1568.03 254.413C1567.73 254.278 1567.42 254.108 1567.15 253.905C1566.85 253.769 1566.54 253.565 1566.24 253.396C1566.07 253.328 1565.93 253.226 1565.76 253.158C1565.26 252.921 1564.71 252.718 1564.21 252.48C1563.46 252.209 1562.71 251.87 1562 251.531C1561.46 251.293 1560.95 251.022 1560.41 250.784C1560.07 250.649 1559.73 250.479 1559.39 250.31C1558.89 250.106 1558.41 249.903 1557.9 249.699C1557.4 249.564 1556.89 249.394 1556.34 249.225C1555.8 249.123 1555.26 248.987 1554.72 248.851C1553.97 248.716 1553.19 248.546 1552.45 248.411C1551.84 248.343 1551.23 248.241 1550.62 248.139C1549.36 247.936 1548.11 247.766 1546.86 247.563C1546.21 247.495 1545.57 247.393 1544.96 247.291C1543.91 247.088 1542.83 247.122 1541.74 247.257C1540.83 247.427 1539.91 247.63 1539.03 247.834C1524.09 250.818 1516.87 261.976 1520.26 276.831C1521.18 280.799 1522.6 284.563 1524.33 288.192C1526.12 291.923 1525.44 294.975 1522.6 297.824C1521.04 299.384 1519.45 300.876 1517.85 302.334C1513.69 306.133 1509.32 306.777 1503.96 304.606C1484.99 296.874 1466.12 288.836 1447.14 281.138C1444.94 280.256 1443.01 278.967 1441.21 277.373C1439.62 275.372 1439.62 272.998 1439.62 270.658C1439.55 251.531 1439.62 232.403 1439.59 213.309C1439.59 208.426 1441.38 204.932 1445.62 202.592C1449.28 200.558 1452.33 197.573 1456.36 196.183C1460.05 195.403 1461.75 192.723 1463.07 189.434C1468.52 175.902 1473.64 162.268 1479.6 148.94C1480.75 146.329 1481.91 143.717 1483.63 141.445C1484.21 140.936 1484.89 140.631 1485.63 140.495C1490.51 139.614 1494.41 142.395 1498.68 143.853C1499.08 144.022 1499.46 144.26 1499.83 144.531C1500.17 144.769 1500.51 145.04 1500.81 145.311C1500.98 145.413 1501.12 145.548 1501.29 145.684C1501.63 145.888 1501.93 146.159 1502.2 146.43C1502.54 146.668 1502.81 146.905 1503.12 147.176C1503.45 147.414 1503.76 147.685 1504.03 147.956C1504.2 148.092 1504.34 148.262 1504.47 148.397C1504.78 148.702 1505.05 149.042 1505.32 149.381C1505.45 149.584 1505.56 149.754 1505.66 149.957C1505.86 150.364 1506 150.805 1506.1 151.28C1506.1 151.517 1506.1 151.755 1506.1 151.992C1506.03 152.467 1505.89 152.908 1505.66 153.349C1499.59 168.068 1493.32 182.685 1487.53 197.471C1486.82 199.269 1484.96 201.541 1486.34 203.033C1487.94 204.729 1490.51 203.237 1492.44 202.457C1501.86 198.658 1508.13 191.876 1511.04 182.074C1511.76 179.666 1512.06 177.123 1514.33 175.461C1515.25 174.884 1516.33 174.85 1517.31 174.477C1518.94 174.172 1520.53 174.308 1522.12 174.579C1523.38 174.817 1524.63 175.054 1525.92 175.088C1527.68 175.291 1529.48 175.257 1531.2 175.631C1532.39 175.868 1533.61 176.105 1534.83 176.139C1536.05 176.241 1537.27 176.275 1538.49 176.444C1539.2 176.512 1539.88 176.818 1540.59 176.919C1541.94 177.258 1543.33 177.462 1544.72 177.394C1546.15 177.36 1547.57 177.462 1548.99 177.699C1549.47 177.801 1549.91 177.937 1550.35 178.106C1551.91 178.886 1553.57 178.852 1555.23 178.852C1556.48 178.852 1557.73 178.852 1558.99 178.886C1560.55 179.022 1562.14 179.259 1563.7 179.225C1575.35 180.752 1587.01 182.312 1598.66 183.533C1600.7 184.279 1602.8 184.787 1604.97 184.889C1607.24 185.567 1609.57 185.33 1611.88 185.601C1612.35 185.703 1612.86 185.873 1613.33 186.042C1614.93 186.754 1616.59 187.06 1618.35 186.721C1619.09 186.687 1619.84 186.754 1620.55 186.89C1622.41 187.263 1624.21 188.145 1626.18 187.874C1626.65 187.84 1627.16 187.84 1627.63 187.941C1629.26 188.247 1630.78 188.925 1632.51 188.721C1633.26 188.687 1633.97 188.789 1634.68 188.925C1636.27 189.264 1637.83 189.942 1639.53 189.739C1640.24 189.705 1640.95 189.773 1641.66 189.942C1643.01 190.247 1644.34 190.722 1645.76 190.688C1646.47 190.688 1647.18 190.79 1647.86 190.96C1649.45 191.333 1650.98 191.943 1652.67 191.74C1653.38 191.706 1654.09 191.774 1654.81 191.943C1656.4 192.248 1657.89 193.028 1659.58 192.893C1660.06 192.859 1660.53 192.893 1660.97 192.995C1662.53 193.3 1664.02 194.08 1665.68 193.91C1666.16 193.876 1666.6 193.944 1667.07 194.012C1668.39 194.317 1669.71 194.724 1671.1 194.656C1672.05 194.656 1672.97 194.792 1673.88 194.962C1675.2 195.267 1676.52 195.742 1677.91 195.742C1678.62 195.742 1679.3 195.843 1679.98 196.013C1681.3 196.284 1682.52 196.895 1683.88 196.929C1684.32 196.929 1684.72 196.997 1685.16 197.064C1686.11 197.268 1687.03 197.607 1688.01 197.369C1688.31 197.234 1688.62 197.098 1688.92 196.929C1689.16 196.691 1689.4 196.488 1689.64 196.25C1689.81 195.979 1689.98 195.708 1690.14 195.436C1690.35 194.962 1690.52 194.521 1690.69 194.046C1690.79 193.707 1690.92 193.402 1691.06 193.096C1691.26 192.622 1691.5 192.147 1691.7 191.706C1691.84 191.401 1691.97 191.095 1692.14 190.79C1692.35 190.315 1692.62 189.908 1692.79 189.434C1692.89 189.094 1693.02 188.789 1693.16 188.518C1693.33 188.043 1693.5 187.568 1693.67 187.094C1693.77 186.754 1693.91 186.449 1694.04 186.144C1694.21 185.669 1694.45 185.228 1694.68 184.753C1694.82 184.448 1694.96 184.143 1695.13 183.838C1695.33 183.397 1695.63 182.956 1695.84 182.515C1695.94 182.21 1696.11 181.905 1696.28 181.633C1696.48 181.193 1696.72 180.752 1696.89 180.277C1696.99 179.938 1697.12 179.632 1697.26 179.327C1697.43 178.852 1697.6 178.344 1697.77 177.869C1697.87 177.53 1697.97 177.191 1698.11 176.851C1698.31 176.343 1698.55 175.868 1698.72 175.393C1698.82 175.054 1698.95 174.715 1699.12 174.376C1699.33 173.833 1699.53 173.324 1699.73 172.782C1699.83 172.375 1700 172.036 1700.17 171.663C1700.44 171.052 1700.78 170.543 1701.16 170.001C1701.46 169.628 1701.8 169.356 1702.17 169.085C1703.09 168.644 1703.97 168.509 1704.88 169.119C1707.66 171.561 1707.15 175.223 1708.37 178.276C1708.54 178.683 1708.68 179.124 1708.75 179.598C1708.85 180.684 1709.12 181.735 1709.46 182.786C1709.59 183.227 1709.66 183.634 1709.73 184.075C1710.37 185.94 1710.64 187.907 1711.39 189.773C1711.56 190.18 1711.69 190.587 1711.76 190.994C1711.86 192.011 1712.13 192.995 1712.51 193.978C1712.68 194.351 1712.78 194.724 1712.88 195.131C1713.08 195.877 1713.32 196.657 1713.52 197.403C1713.73 197.98 1713.86 198.59 1713.96 199.167C1714.07 199.506 1714.17 199.879 1714.23 200.184C1714.23 200.117 1714.37 200.558 1714.4 200.49C1714.4 200.422 1714.64 200.659 1714.64 200.625C1714.64 200.591 1714.84 200.456 1714.84 200.388C1714.91 200.117 1714.98 199.913 1715.08 199.642C1715.15 199.303 1715.25 199.031 1715.35 198.76C1715.52 198.251 1715.66 197.777 1715.83 197.268C1715.89 196.895 1716.03 196.556 1716.17 196.216C1716.4 195.538 1716.67 194.826 1716.88 194.114C1716.95 193.741 1717.08 193.402 1717.22 193.029C1717.45 192.316 1717.69 191.604 1717.89 190.858C1717.96 190.451 1718.1 190.078 1718.23 189.705C1718.54 188.925 1718.88 188.179 1719.11 187.399C1719.28 186.992 1719.52 186.619 1719.79 186.246C1721.52 184.38 1722.98 184.855 1724.3 186.721C1724.53 187.094 1724.7 187.534 1724.81 187.941C1724.87 189.027 1725.11 190.044 1725.65 190.994C1725.79 191.401 1725.86 191.808 1725.92 192.215C1726.06 193.232 1726.43 194.148 1726.74 195.131C1726.87 195.504 1726.97 195.911 1727.01 196.318C1727.11 197.098 1727.38 197.878 1727.62 198.624C1727.79 198.997 1727.86 199.404 1727.92 199.811C1728.06 200.591 1728.43 201.337 1728.67 202.084C1728.8 202.457 1728.91 202.83 1729.01 203.203C1729.18 203.712 1729.35 204.22 1729.65 204.695C1729.92 204.932 1730.16 205.17 1730.4 205.407C1730.87 205.678 1731.34 205.882 1731.89 206.018C1732.29 206.086 1732.63 206.187 1733.01 206.289C1733.95 206.594 1734.9 206.832 1735.92 206.899C1736.56 206.933 1737.17 207.069 1737.78 207.205C1739 207.476 1740.15 208.053 1741.44 208.053C1741.88 208.053 1742.29 208.12 1742.7 208.222C1743.71 208.459 1744.66 208.9 1745.71 209.036C1746.12 209.07 1746.52 209.172 1746.93 209.273C1747.91 209.545 1748.9 209.884 1749.91 209.952C1750.56 209.986 1751.17 210.121 1751.78 210.291C1752.79 210.528 1753.74 210.969 1754.79 211.071C1755.23 211.105 1755.64 211.207 1756.04 211.308C1757.03 211.58 1757.98 212.088 1759.03 212.19C1759.43 212.224 1759.84 212.292 1760.25 212.393C1761.2 212.665 1762.14 213.004 1763.16 213.038C1763.77 213.072 1764.38 213.208 1764.96 213.343C1765.94 213.581 1766.85 214.021 1767.87 214.089C1768.28 214.123 1768.68 214.225 1769.06 214.327C1770 214.598 1770.92 215.039 1771.94 215.107C1772.34 215.141 1772.75 215.242 1773.12 215.344C1774.07 215.582 1774.98 216.056 1776 216.124C1776.41 216.158 1776.81 216.26 1777.19 216.362C1778.14 216.633 1779.05 217.074 1780.1 217.142C1780.51 217.175 1780.91 217.277 1781.32 217.379C1782.34 217.684 1783.32 218.023 1784.37 218.125C1784.84 218.159 1785.25 218.261 1785.69 218.362C1786.84 218.702 1788 218.905 1789.18 219.075C1825.44 228.333 1860.88 240.135 1895.94 253.091C1902.08 255.363 1908.17 257.669 1914.38 259.772C1916.61 260.62 1918.81 261.637 1920 264.147Z" fill="#124838"/>
<path d="M674 307.823C665.564 311.215 656.055 312.846 647.314 315.22C616.655 323.463 585.961 331.604 555.234 339.541C530.334 345.986 505.434 352.261 480.432 358.264C441.574 367.592 402.683 376.649 363.554 384.858C339.738 389.878 315.888 394.729 292.004 399.342C265.986 404.396 239.9 408.907 213.713 413.011C193.691 416.166 173.635 419.253 153.58 422.068C137.826 424.273 122.039 426.206 106.218 428.106C94.2596 429.564 82.233 430.684 70.2742 432.176C57.9766 433.702 45.6112 434.55 33.2797 435.805C27.1478 436.45 20.9482 436.959 14.7486 437.264C8.54892 437.535 2.38317 438.18 -3.85034 438.078C-3.85034 365.998 -3.85034 293.919 -3.85034 221.839C-3.07115 221.059 -2.56299 220.007 -1.41114 219.6C-0.0221543 219.363 1.40071 219.125 2.75582 218.752C10.6493 218.617 18.4751 217.327 26.4025 217.327C29.0788 217.26 31.7552 217.429 34.4315 217.09C37.7177 216.785 41.1054 217.395 44.3238 216.344C66.4121 215.089 88.5682 215.055 110.656 214.275C134.981 213.427 159.237 214.885 183.494 214.885C202.533 214.885 221.606 216.412 240.679 217.667C242.373 217.768 244.033 217.938 245.456 218.956C247.523 220.652 247.523 223.026 247.556 225.366C247.658 231.879 247.557 238.392 247.624 244.904C247.658 246.906 247.523 248.941 248.573 250.739C249.623 252.028 250.639 253.113 252.367 253.791C261.717 257.522 270.898 261.729 280.113 265.799C286.855 268.784 287.193 270.141 284.89 277.027C282.586 283.912 283.433 290.255 288.515 295.784C293.054 300.736 298.373 304.332 304.945 306.062C307.893 306.842 310.027 306.232 312.229 304.128C319.987 296.666 326.966 288.457 334.25 280.554C337.095 277.467 340.178 274.584 342.889 271.396C346.242 267.393 346.175 266.002 341.635 263.73C326.221 256.098 310.705 256.132 295.9 264.917C290.581 268.072 286.414 268.513 280.994 265.867C273.609 262.237 266.02 259.015 258.465 255.725C255.586 254.47 252.469 253.452 250.402 250.773C250.165 250.23 250.03 249.687 250.03 249.077C250.267 239.749 249.284 230.387 250.538 221.059C252.503 218.413 255.315 218.616 258.126 218.888C258.668 219.057 259.21 219.227 259.753 219.363C262.09 220.346 264.462 220.143 266.867 219.702C268.493 219.668 270.153 219.702 271.745 220.007C274.32 220.618 276.895 221.5 279.605 220.753C280.96 220.652 282.315 220.753 283.67 221.025C285.703 221.5 287.702 222.144 289.836 221.771C291.191 221.703 292.512 221.805 293.834 222.076C295.832 222.551 297.831 223.162 299.965 222.789C301.32 222.721 302.642 222.822 303.963 223.094C306.233 223.603 308.469 224.485 310.874 223.908C311.958 223.806 313.008 223.908 314.059 224.111C316.023 224.586 317.988 225.231 320.089 224.858C321.41 224.756 322.697 224.892 323.985 225.129C325.475 225.468 326.966 225.808 328.49 225.74C329.812 225.774 331.133 225.875 332.454 226.113C334.555 226.689 336.689 226.995 338.891 226.689C352.34 228.317 365.688 230.488 379.138 232.049C381.272 232.286 383.406 232.931 385.134 234.389C387.336 239.07 385.574 244.09 386.218 248.873C386.455 250.908 388.048 251.587 389.64 252.129C393.773 253.554 397.466 255.962 401.666 257.319C405.02 258.405 406.342 260.575 405.63 264.307C404.512 270.276 409.391 276.518 415.319 277.162C417.521 277.4 419.351 276.518 420.74 274.991C424.466 270.887 428.362 266.918 431.885 262.645C434.9 258.981 434.257 257.421 429.48 256.098C423.619 254.436 417.792 254.47 412.372 257.489C408.815 259.456 405.766 259.524 402.005 257.624C398.143 255.691 394.179 253.757 390.08 252.299C388.454 251.722 386.963 251.044 386.354 249.212C386.354 244.87 385.71 240.563 386.726 236.255C387.031 235.746 387.438 235.305 387.946 234.966C389.267 234.253 390.656 234.084 392.113 234.253C393.4 234.389 394.654 234.728 395.941 234.898C396.924 235 397.872 235.169 398.821 235.373C400.176 235.678 401.497 236.153 402.92 236.153C403.631 236.153 404.309 236.255 404.986 236.424C406.308 236.73 407.595 237.205 408.984 237.205C409.662 237.205 410.339 237.306 411.017 237.442C412.101 237.679 413.219 237.951 414.337 238.019C415.251 238.087 416.166 238.222 417.047 238.426C418.368 238.731 419.656 239.206 421.045 239.206C421.722 239.206 422.4 239.308 423.077 239.443C424.161 239.681 425.245 239.952 426.397 240.054C427.312 240.122 428.193 240.257 429.074 240.461C430.158 240.698 431.242 240.97 432.36 241.071C433.274 241.139 434.155 241.309 435.036 241.512C436.12 241.784 437.17 242.157 438.254 242.293C438.695 242.327 439.135 242.428 439.576 242.53C440.829 242.903 442.083 243.276 443.404 243.174C444.318 243.174 445.199 243.276 446.08 243.446C446.961 243.615 447.842 243.785 448.689 243.955C449.57 244.09 450.416 244.294 451.297 244.497C452.348 244.769 453.398 245.074 454.482 245.176C455.125 245.244 455.769 245.345 456.413 245.515C457.463 245.786 458.479 246.091 459.563 246.193C460.207 246.261 460.851 246.363 461.495 246.533C462.545 246.804 463.561 247.109 464.611 247.211C465.255 247.279 465.899 247.381 466.542 247.55C467.592 247.822 468.609 248.127 469.659 248.229C470.303 248.263 470.946 248.398 471.59 248.568C472.606 248.839 473.657 249.144 474.707 249.246C475.351 249.314 475.994 249.416 476.604 249.585C477.62 249.857 478.637 250.162 479.687 250.264C480.331 250.298 480.94 250.433 481.584 250.569C482.397 250.738 483.244 250.942 484.057 251.078C484.904 251.213 485.717 251.383 486.564 251.587C487.377 251.756 488.19 251.994 489.037 252.163C489.681 252.265 490.291 252.435 490.9 252.604C491.883 252.909 492.899 253.181 493.949 253.283C494.593 253.317 495.203 253.452 495.813 253.622C496.829 253.893 497.811 254.198 498.862 254.3C499.505 254.368 500.115 254.47 500.725 254.639C501.538 254.809 502.317 255.046 503.13 255.25C503.74 255.352 504.316 255.521 504.892 255.691C505.671 255.894 506.416 256.132 507.196 256.301C507.772 256.403 508.347 256.573 508.89 256.742C509.635 256.946 510.38 257.115 511.159 257.217C511.566 257.251 511.938 257.353 512.311 257.489C512.887 257.59 513.497 257.658 514.073 257.794C514.818 258.031 515.597 258.201 516.377 258.337C516.952 258.438 517.528 258.574 518.104 258.744C518.883 258.947 519.629 259.151 520.408 259.32C520.984 259.422 521.56 259.592 522.136 259.727C522.915 259.931 523.66 260.134 524.439 260.304C525.049 260.406 525.625 260.575 526.167 260.745C527.116 261.016 528.03 261.457 529.013 261.525C529.419 261.559 529.792 261.627 530.199 261.763C530.978 261.966 531.723 262.17 532.502 262.339C533.078 262.441 533.654 262.611 534.23 262.746C535.009 262.95 535.755 263.153 536.534 263.323C537.11 263.425 537.686 263.594 538.262 263.73C539.041 263.933 539.786 264.137 540.565 264.307C541.141 264.408 541.717 264.578 542.293 264.714C543.072 264.917 543.818 265.121 544.597 265.29C545.173 265.392 545.748 265.562 546.324 265.731C547.104 265.935 547.849 266.138 548.628 266.308C549.204 266.409 549.78 266.579 550.356 266.749C551.101 266.952 551.88 267.156 552.626 267.359C553.202 267.461 553.778 267.631 554.353 267.8C555.099 268.038 555.844 268.275 556.589 268.513C556.962 268.58 557.335 268.716 557.707 268.852C558.622 269.157 559.469 269.598 560.451 269.632C560.858 269.666 561.231 269.734 561.603 269.869C562.349 270.073 563.094 270.276 563.839 270.446C564.415 270.548 564.991 270.683 565.533 270.853C566.278 271.057 567.024 271.26 567.803 271.43C568.379 271.531 568.955 271.701 569.497 271.871C570.242 272.108 570.954 272.38 571.699 272.583C572.072 272.651 572.444 272.786 572.817 272.888C573.528 273.126 574.274 273.329 575.019 273.499C575.595 273.6 576.171 273.77 576.747 273.94C577.526 274.143 578.305 274.381 579.118 274.584C579.559 274.686 579.965 274.822 580.372 274.991C581.219 275.466 582.133 275.602 583.048 275.704C601.342 280.181 619.195 286.015 636.981 292.121C646.975 295.547 657.105 298.701 666.895 302.67C669.47 303.959 673.153 304.465 674 307.823Z" fill="#347A65"/>
<path d="M1582.94 263.469C1585.28 264.929 1586.97 266.966 1588.47 269.242C1589.93 271.517 1591.99 272.502 1594.81 272.637C1606.18 273.113 1617.13 275.796 1627.35 280.787C1632.57 283.368 1637.35 286.934 1642.68 289.447C1651.77 293.76 1658.46 301.264 1666.29 307.207C1669.38 309.584 1671.38 313.387 1673.86 316.546C1675.01 318.04 1674.84 319.602 1674.33 321.334C1673.42 324.424 1671.65 327.141 1670.47 330.095C1663.85 346.463 1657.34 362.899 1650.62 379.233C1645.77 391.051 1640.71 402.8 1635.76 414.584C1635.35 415.501 1634.98 416.451 1634.64 417.402C1633.11 422.055 1632.47 422.394 1627.85 421.613C1621 420.459 1614.73 417.368 1608.08 415.67C1602.34 414.21 1597.9 410.645 1593.18 407.52C1589.42 405.042 1585.85 402.291 1581.58 400.491C1578.56 399.235 1575.91 396.891 1573.71 394.277C1571.74 391.933 1569.64 391.628 1567.06 393.224C1565.77 394.005 1564.34 394.548 1562.89 395.024C1550.67 398.963 1540.19 394.888 1530.39 387.858C1532.66 381.576 1535.37 375.464 1537.95 369.317C1551.42 337.294 1564.58 305.136 1577.68 272.943C1579.03 269.649 1579.78 265.846 1582.94 263.469Z" fill="#124838"/>
<path d="M1582.87 263.858C1582.9 265.547 1582.63 267.135 1581.95 268.723C1575.02 285.38 1568.12 302.037 1561.29 318.695C1556.23 331.027 1550.93 343.292 1546 355.692C1542.43 364.679 1538.25 373.43 1534.79 382.451C1533.94 384.715 1532.31 386.404 1530.24 387.62C1529.56 387.283 1528.88 386.945 1528.2 386.607C1527.89 386.235 1527.52 385.931 1527.18 385.593C1526.84 385.255 1526.46 384.951 1526.16 384.58C1523.07 382.282 1520.35 379.613 1518.07 376.538C1517.7 376.234 1517.39 375.863 1517.05 375.525C1516.71 375.187 1516.41 374.815 1516.03 374.511C1515.69 373.835 1515.35 373.16 1515.01 372.484C1514.64 372.18 1514.37 371.774 1513.99 371.47C1513.65 370.795 1513.31 370.119 1512.97 369.443C1512.6 369.139 1512.33 368.733 1511.95 368.429C1511.95 368.091 1511.95 367.754 1511.95 367.416C1511.58 367.112 1511.31 366.706 1510.94 366.402C1510.94 366.064 1510.94 365.726 1510.94 365.389C1510.29 364.882 1510.56 363.902 1509.92 363.361C1509.92 363.023 1509.92 362.686 1509.92 362.348C1509.27 361.841 1509.54 360.861 1508.9 360.321C1508.05 356.334 1507.64 352.313 1507.88 348.225C1508.52 347.718 1508.25 346.738 1508.9 346.197C1508.73 343.326 1510.53 341.332 1511.92 339.136C1512.29 338.832 1512.6 338.46 1512.94 338.122C1513.28 337.784 1513.62 337.447 1513.96 337.109C1514.3 336.771 1514.64 336.433 1514.98 336.095C1515.32 335.757 1515.66 335.419 1516 335.081C1516.34 334.743 1516.71 334.439 1517.02 334.068C1517.36 334.068 1517.7 334.068 1518.04 334.068C1518.34 333.696 1518.75 333.426 1519.06 333.054C1520.45 331.703 1518.99 330.385 1519.06 329.033C1518.68 328.729 1518.41 328.324 1518.04 328.02C1518.04 327.682 1518.04 327.344 1518.04 327.006C1517.66 326.702 1517.39 326.297 1517.02 325.992C1517.02 325.655 1517.02 325.317 1517.02 324.979C1516.64 324.675 1516.37 324.269 1516 323.965C1516 323.627 1516 323.29 1516 322.952C1515.62 322.648 1515.35 322.242 1514.98 321.938C1514.81 320.08 1513.69 318.559 1512.94 316.904C1512.57 316.6 1512.29 316.194 1511.92 315.89C1511.48 312.984 1509.2 312.376 1506.86 311.869C1506.55 311.498 1506.14 311.228 1505.84 310.856C1502.13 309.504 1498.43 308.187 1494.69 306.835C1494.39 306.463 1493.98 306.193 1493.67 305.822C1491.64 305.146 1489.63 304.47 1487.59 303.794C1487.29 303.423 1486.88 303.152 1486.57 302.781C1485.89 302.781 1485.21 302.781 1484.53 302.781C1484.23 302.409 1483.82 302.139 1483.51 301.767C1476.72 299.064 1469.89 296.327 1463.06 293.624C1462.14 293.253 1461.16 293.016 1460.2 292.712C1459.9 292.34 1459.49 292.07 1459.18 291.699C1457.83 291.361 1456.5 291.023 1455.14 290.685C1454.84 290.313 1454.43 290.043 1454.12 289.671C1452.76 289.333 1451.44 288.995 1450.08 288.658C1449.77 288.286 1449.36 288.016 1449.06 287.644C1447.7 287.306 1446.37 286.968 1445.02 286.63C1444.71 286.259 1444.3 285.988 1444 285.617C1443.66 285.617 1443.32 285.617 1442.98 285.617C1442.67 285.245 1442.26 284.975 1441.96 284.603C1439.92 283.927 1437.91 283.252 1435.88 282.576C1435.57 282.204 1435.16 281.934 1434.86 281.562C1433.84 281.224 1432.82 280.886 1431.83 280.549C1431.39 280.143 1431.36 279.704 1431.7 279.231C1434.62 276.697 1438.93 277.846 1441.92 275.514C1449.87 278.623 1457.96 281.529 1465.78 284.941C1479.5 290.854 1493.4 296.294 1507.23 301.97C1509.34 302.814 1510.97 302.578 1512.84 301.227C1516 298.963 1518.68 296.226 1521.5 293.591C1523.37 291.867 1523.61 290.516 1522.32 288.016C1518.85 281.292 1516.2 274.23 1516.85 266.425C1517.8 254.803 1525.61 244.802 1539.1 244.295C1539.61 243.653 1540.6 243.923 1541.14 243.281C1542.5 243.281 1543.83 243.281 1545.19 243.281C1545.49 243.653 1545.9 243.923 1546.21 244.295C1547.9 244.295 1549.57 244.295 1551.27 244.295C1551.57 244.666 1551.98 244.937 1552.29 245.308C1553.31 245.308 1554.33 245.308 1555.31 245.308C1555.62 245.68 1556.03 245.951 1556.33 246.322C1557.01 246.322 1557.69 246.322 1558.37 246.322C1558.68 246.694 1559.08 246.964 1559.39 247.336C1559.73 247.336 1560.07 247.336 1560.41 247.336C1560.71 247.707 1561.12 247.978 1561.43 248.349C1562.79 248.687 1564.11 249.025 1565.47 249.363C1565.78 249.735 1566.15 250.039 1566.49 250.377C1566.83 250.714 1567.2 251.019 1567.51 251.39C1567.85 251.39 1568.19 251.39 1568.53 251.39C1568.84 251.762 1569.24 252.032 1569.55 252.404C1569.89 252.404 1570.23 252.404 1570.57 252.404C1570.87 252.776 1571.25 253.08 1571.59 253.417C1571.93 253.755 1572.3 254.059 1572.61 254.431C1573.29 254.769 1573.97 255.107 1574.65 255.445C1574.95 255.816 1575.33 256.121 1575.67 256.458C1576.01 256.796 1576.35 257.134 1576.68 257.472C1577.02 257.81 1577.4 258.114 1577.7 258.486C1579.84 260.107 1581.54 261.797 1582.87 263.858Z" fill="#124838"/>
<path d="M1348.37 172.045C1349.18 170.724 1349.35 169.233 1349.42 167.709C1349.83 157.073 1353.97 148.334 1362.5 141.763C1367.32 138.409 1370.51 133.803 1373.26 128.722C1388.85 99.9646 1404.51 71.207 1420.54 42.6866C1420.95 41.9414 1421.49 41.2641 1421.73 40.485C1424.34 31.8476 1430.15 28.5959 1438.91 30.3234C1440.44 30.5266 1442.07 29.8829 1443.53 30.7974C1444.18 30.7974 1444.86 30.8313 1445.5 30.8313C1446.35 31.712 1447.74 30.8992 1448.59 31.7799C1449.24 31.8137 1449.88 31.8136 1450.56 31.8475C1451.14 32.4233 1452.09 32.1863 1452.64 32.796C1452.97 32.8299 1453.31 32.8299 1453.65 32.8299C1454.2 33.4396 1455.11 33.2024 1455.66 33.7782C1456 33.8121 1456.34 33.8121 1456.68 33.846C1457.22 34.4557 1458.14 34.2187 1458.68 34.7945C1459.02 34.8284 1459.36 34.8621 1459.67 34.8621C1460.21 35.4718 1461.19 35.201 1461.74 35.8446C1462.04 35.8784 1462.35 35.9121 1462.65 35.8783C1463.03 36.1831 1463.44 36.4542 1463.74 36.8268C1464.05 36.8607 1464.39 36.8946 1464.69 36.8607C1465.03 37.1655 1465.44 37.4364 1465.78 37.809C1466.08 37.8429 1466.42 37.8768 1466.73 37.8768C1467.07 38.1817 1467.48 38.4527 1467.82 38.8253C1468.12 38.8592 1468.43 38.8929 1468.77 38.8929C1469.14 39.1978 1469.52 39.5028 1469.85 39.8754H1469.89C1470.19 40.2818 1470.43 40.722 1470.5 41.1962C1469.85 46.1416 1465.98 49.2918 1463.5 53.1871C1454.47 67.515 1445.81 82.0124 1439.63 97.8645C1438 101.997 1434.26 104.639 1432.26 108.602C1421.86 128.858 1410.21 148.436 1399.55 168.556C1398.53 170.487 1397.34 172.315 1395.37 173.501C1391.06 174.416 1388.27 171.469 1385.15 169.437C1382.33 166.286 1374.98 168.404 1374.37 163.323C1373.99 162.781 1373.34 162.297 1372.87 161.823C1371.16 160.786 1372.87 161.823 1370.1 159.105C1369.49 160.088 1375.52 163.692 1374.67 164.403C1369.44 168.841 1365.96 174.611 1362.67 180.403C1361.99 181.623 1361.17 191.403 1357.17 188.903C1353.17 186.403 1350.3 179.327 1349.69 177.261C1349.15 175.534 1349.9 173.501 1348.37 172.045Z" fill="#FECF83" fill-opacity="0.85"/>
<path d="M1442.6 276.313C1442.67 279.212 1441.15 280.392 1438.38 280.324C1436.41 280.291 1434.49 280.324 1432.52 280.324C1432.19 280.729 1431.85 280.729 1431.51 280.324C1431.51 258.143 1431.51 235.963 1431.47 213.781C1431.47 211.826 1431.98 209.736 1430.49 208.017C1430.19 207.646 1429.78 207.377 1429.48 207.006C1428.8 206.669 1428.13 206.332 1427.45 205.995C1427.15 205.624 1426.74 205.354 1426.43 205.017C1426.1 205.017 1425.76 205.017 1425.42 205.017C1425.12 204.646 1424.71 204.377 1424.41 204.006C1424.07 204.006 1423.73 204.006 1423.39 204.006C1423.09 203.635 1422.68 203.365 1422.38 202.994C1421.7 202.657 1421.02 202.32 1420.35 201.983C1420.04 201.612 1419.64 201.343 1419.33 200.972C1418.99 200.972 1418.65 200.972 1418.32 200.972C1418.01 200.601 1417.61 200.331 1417.3 199.961C1416.96 199.961 1416.62 199.961 1416.29 199.961C1415.98 199.59 1415.61 199.32 1415.27 198.949C1414.93 198.612 1414.56 198.309 1414.26 197.938C1413.58 197.938 1412.9 197.938 1412.23 197.938C1411.92 198.309 1411.52 198.578 1411.21 198.916C1410.2 199.59 1409.18 200.264 1408.2 200.938C1407.9 201.309 1407.49 201.579 1407.19 201.949C1406.85 201.949 1406.51 201.949 1406.17 201.949C1405.87 202.32 1405.46 202.556 1405.16 202.927C1404.82 202.927 1404.48 202.927 1404.14 202.927C1403.84 203.298 1403.43 203.534 1403.13 203.905C1401.77 204.242 1400.46 204.579 1399.1 204.916C1398.59 205.556 1397.61 205.253 1397.11 205.894C1396.43 205.894 1395.75 205.894 1395.08 205.894C1394.6 206.264 1394.1 206.433 1393.52 206.365C1389.87 206.365 1386.21 206.365 1382.56 206.365C1381.99 206.399 1381.44 206.231 1381 205.86C1380.67 205.86 1380.33 205.86 1379.99 205.86C1381 200.534 1383.37 195.713 1386.82 191.668C1390.17 187.758 1393.52 183.915 1395.52 179.094C1396.36 177.038 1397.65 175.352 1399.91 174.645C1407.19 175.352 1414.05 177.914 1421.09 179.701C1424.78 180.645 1424.1 183.814 1423.02 186.679C1421.06 191.971 1423.9 195.309 1429.92 194.837C1431 192.848 1430.87 190.69 1430.9 188.533C1431 181.184 1433.47 179.499 1440.95 181.555C1444.06 183.78 1443.42 187.151 1443.48 190.252C1443.65 196.017 1443.62 196.05 1448.49 193.387C1450.42 192.342 1452.31 191.263 1454.65 191.634C1456.61 192.342 1458.16 193.353 1457.59 195.848C1454.24 199.421 1449.94 201.781 1445.75 204.141C1442.5 205.927 1441.39 208.186 1441.39 211.759C1441.52 231.277 1441.45 250.829 1441.45 270.347C1441.59 272.504 1441.59 274.493 1442.6 276.313Z" fill="#FECF83" fill-opacity="0.85"/>
<path d="M1504.16 134.949C1504.1 135.255 1504.06 135.561 1504.06 135.867C1503.79 136.242 1503.53 136.582 1503.22 136.922C1503.16 137.262 1503.12 137.602 1503.06 137.942C1502.45 138.52 1502.69 139.472 1502.08 140.017C1501.48 140.561 1501.68 141.479 1501.08 142.023C1500.47 142.567 1500.68 143.519 1500.04 144.03L1500.07 143.995C1499.77 144.336 1499.47 144.676 1499.23 145.05L1499 145.016C1496.35 146.206 1494.37 144.098 1492.16 143.417C1490.15 142.805 1488.27 141.819 1486.09 141.989C1482.84 141.377 1479.95 143.009 1476.87 143.519C1476.16 143.723 1475.43 143.859 1474.69 143.995C1473.72 144.2 1472.71 144.335 1471.71 144.335C1470.93 144.335 1470.16 144.166 1469.49 143.791C1466.71 141.275 1467.92 138.452 1469.22 135.97C1474.45 126.175 1479.28 116.177 1484.95 106.654C1489.58 98.8324 1493.13 90.4323 1498.06 82.8145C1499.4 80.7059 1500.37 77.5772 1504.03 79.2096C1504.1 79.5157 1504.13 79.7878 1504.13 80.0938C1504.67 80.706 1504.43 81.6582 1505.07 82.2364C1505.14 82.5425 1505.17 82.8143 1505.14 83.1204C1505.64 83.7326 1505.44 84.6848 1506.04 85.263C1506.11 85.569 1506.14 85.8752 1506.11 86.1813C1506.75 86.9634 1507.52 87.6096 1507.92 88.5619C1508.12 89.174 1508.02 89.7861 1507.95 90.3642C1508.15 92.4387 1507.65 94.6154 1509.03 96.4859C1509.53 107.743 1508.96 118.897 1506.04 129.814C1506.21 131.004 1505.77 131.956 1505.04 132.841C1504.5 133.453 1504.73 134.371 1504.16 134.949Z" fill="#FECF83" fill-opacity="0.85"/>
<path d="M1472.87 139.918C1473.55 139.918 1474.23 139.918 1474.9 139.918C1477.57 139.134 1480.27 139.1 1482.94 139.918C1492 141.823 1507.49 147.172 1505.5 151.395C1503.44 155.823 1499.51 162.521 1498.5 167.323C1497.79 170.695 1492.58 179.588 1491.5 182.823C1489.47 189.022 1493 206.823 1482.5 203.323C1479.5 203.323 1458.64 196.318 1456.72 194.717C1456.01 193.389 1454.99 192.367 1453.71 191.652C1449.25 189.847 1448.03 185.76 1447.19 181.639C1446.82 179.868 1446.44 178.063 1445.94 176.326C1445.5 173.635 1445.5 170.945 1445.87 168.288C1446.04 167.335 1446.31 166.381 1446.58 165.427C1446.75 164.78 1446.95 164.167 1447.19 163.52C1447.46 162.771 1447.76 162.022 1448.07 161.272C1448.17 160.898 1448.3 160.557 1448.47 160.216C1448.67 159.706 1448.91 159.229 1449.18 158.752C1449.32 158.411 1449.49 158.105 1449.65 157.832C1449.89 157.356 1450.13 156.913 1450.36 156.47C1450.5 156.129 1450.63 155.823 1450.8 155.516C1451.04 155.006 1451.28 154.529 1451.51 154.052C1451.65 153.677 1451.85 153.337 1452.02 152.996C1452.19 152.622 1452.39 152.281 1452.63 151.94C1452.73 151.736 1452.87 151.6 1452.97 151.395C1453.17 150.987 1453.44 150.646 1453.71 150.305C1457.83 145.708 1462.06 141.28 1468.82 141.008C1469.49 141.008 1470.17 140.974 1470.81 140.974C1471.39 140.292 1472.37 140.565 1472.87 139.918Z" fill="#E3A476"/>
<path d="M1512.16 157.804C1512.2 158.144 1512.27 158.483 1512.3 158.823C1512.6 159.162 1512.87 159.536 1513.15 159.876C1513.21 160.555 1513.28 161.2 1513.35 161.88C1513.62 162.219 1513.86 162.593 1514.16 162.932C1514.23 163.951 1514.3 164.936 1514.36 165.955C1514.74 166.566 1514.67 167.245 1514.7 167.925C1514.84 169.725 1514.4 171.525 1515.01 173.291C1515.08 173.494 1515.18 173.698 1515.24 173.902C1514.87 175.532 1514.47 177.162 1514.16 178.826C1511.96 191.087 1500.04 202.6 1486.63 203.89C1484.54 204.094 1483.52 203.075 1484.13 200.834C1484.81 198.253 1485.92 195.774 1486.94 193.294C1490.97 183.343 1494.86 173.325 1499.13 163.476C1501.16 158.789 1502.34 153.593 1506.07 149.721C1506.44 149.28 1506.78 149.314 1507.12 149.789L1507.08 149.721C1507.76 150.197 1507.52 151.181 1508.2 151.657L1508.24 151.691C1508.57 152.031 1508.88 152.37 1509.15 152.744C1509.52 153.423 1509.9 154.102 1510.27 154.781C1510.57 155.121 1510.88 155.461 1511.18 155.8C1511.25 156.14 1511.28 156.48 1511.35 156.819C1511.59 157.159 1511.89 157.464 1512.16 157.804Z" fill="#E3A476" fill-opacity="0.85"/>
<path d="M1400.17 174.485C1398.54 175.987 1397.8 177.898 1396.85 179.877C1394.64 184.518 1391.96 189.126 1387.68 192.299C1386.25 193.357 1385.07 194.21 1385.51 196.326C1385.88 198.135 1384.66 199.5 1383.54 200.763C1382.35 202.162 1381.13 203.561 1379.91 204.926C1379.23 204.926 1378.55 204.926 1377.87 204.926C1377.56 204.55 1377.16 204.277 1376.85 203.902C1375.49 203.561 1374.17 203.22 1372.81 202.878C1372.51 202.503 1372.1 202.23 1371.79 201.855C1371.45 201.855 1371.11 201.855 1370.78 201.855C1370.47 201.479 1370.06 201.206 1369.76 200.831C1369.08 200.49 1368.4 200.148 1367.72 199.807C1367.41 199.431 1367.01 199.159 1366.7 198.783C1366.02 198.442 1365.34 198.101 1364.7 197.759C1362.9 194.995 1364.29 192.504 1365.55 190.217C1369.76 182.539 1375.12 175.646 1380.08 168.479C1381.64 166.227 1383.88 164.555 1386.93 166.261C1389.96 167.967 1393.01 169.639 1396.03 171.346C1398.37 171.243 1400.27 171.482 1400.17 174.485Z" fill="#E3A476" fill-opacity="0.85"/>
<path d="M1387.06 166.591C1384.69 166.997 1382.59 168.014 1381.42 170.182C1377.92 176.618 1373.22 182.174 1369.38 188.374C1367.55 191.355 1366.11 194.506 1365.21 197.859C1362.21 195.725 1359.71 193.151 1358.18 189.661C1357.58 188.306 1357.64 187.29 1358.51 185.969C1363.05 179.058 1367.35 172.045 1371.92 165.168C1373.58 162.627 1374.72 159.409 1378.12 158.494C1381.12 161.204 1384.09 163.881 1387.06 166.591Z" fill="#FECF83" fill-opacity="0.85"/>
<path d="M1396.4 195.841C1400.25 195.841 1404.09 195.841 1407.97 195.841C1408.23 196.076 1408.29 196.278 1408.23 196.514C1408.13 196.749 1408.07 196.85 1407.97 196.85C1404.13 196.85 1400.28 196.85 1396.43 196.85C1396.18 196.615 1396.08 196.413 1396.18 196.177C1396.24 195.942 1396.34 195.841 1396.4 195.841Z" fill="#E3A476"/>
<path d="M1411.28 195.841C1411.79 195.18 1412.51 194.902 1413.3 194.832C1412.79 195.493 1412.1 195.772 1411.28 195.841Z" fill="#E3A476"/>
<path d="M1501.11 144.363C1501.46 144.688 1501.77 145.012 1502.12 145.373C1501.77 145.048 1501.43 144.688 1501.11 144.363Z" fill="#E3A476"/>
<path d="M1517.26 138.308C1517.59 138.644 1517.95 138.981 1518.27 139.317C1517.91 139.014 1517.59 138.644 1517.26 138.308Z" fill="#E3A476"/>
<path d="M1396.14 195.841C1396.14 196.177 1396.14 196.514 1396.14 196.85C1395.8 196.514 1395.47 196.177 1395.13 195.841C1395.5 195.841 1395.8 195.841 1396.14 195.841Z" fill="#E3A476"/>
<path d="M1408.25 196.85C1408.25 196.514 1408.25 196.177 1408.25 195.841C1408.59 195.841 1408.92 195.841 1409.26 195.841C1408.92 196.177 1408.59 196.514 1408.25 196.85Z" fill="#E3A476"/>
<path d="M251.725 202.735C251.725 207.802 251.725 212.835 251.691 217.903C251.657 227.697 251.657 237.525 251.623 247.319C248.038 246.673 248.585 243.749 248.551 241.402C248.346 231.03 248.551 220.623 248.414 210.251C248.38 208.074 249.131 205.388 246.093 204.265C231.892 202.735 220.661 196.274 213.322 183.929C210.522 179.202 207.723 174.202 209.908 168.285C209.908 165.258 209.908 162.198 209.908 159.171C209.191 158.151 209.157 157.13 209.976 156.144C211.137 155.022 210.932 153.526 210.966 152.131C211.581 151.587 211.308 150.601 211.956 150.091C211.956 149.751 211.99 149.445 211.956 149.105C212.297 148.798 212.571 148.39 212.946 148.084C212.98 147.744 212.98 147.404 212.98 147.098C213.39 146.724 213.424 146.248 213.39 145.738C213.39 145.398 213.492 145.092 213.765 144.854C214.141 144.513 214.653 144.411 214.994 144.037C215.028 143.697 215.028 143.391 215.028 143.051C215.37 142.711 215.677 142.337 216.018 141.997C216.36 141.657 216.701 141.317 217.008 140.977C217.042 140.637 217.042 140.331 217.042 139.99C217.384 139.65 217.691 139.276 218.067 138.936C218.408 138.596 218.749 138.256 219.091 137.916C219.432 137.576 219.773 137.236 220.115 136.896C220.456 136.556 220.797 136.216 221.139 135.876C221.48 135.536 221.822 135.195 222.163 134.855C222.504 134.515 222.846 134.175 223.187 133.835C223.528 133.495 223.87 133.155 224.211 132.815C224.518 132.441 224.928 132.135 225.269 131.795C225.611 131.795 225.918 131.795 226.259 131.761C226.567 131.42 226.942 131.114 227.283 130.774C227.625 130.4 228 130.094 228.342 129.754C228.683 129.754 228.99 129.754 229.332 129.72C229.639 129.38 230.014 129.074 230.356 128.734C230.629 128.462 230.97 128.292 231.38 128.224C231.789 128.156 232.131 128.02 232.438 127.748C232.779 127.748 233.087 127.748 233.428 127.714C233.974 127.101 234.93 127.34 235.476 126.727C235.749 126.455 236.057 126.183 236.364 125.979C237.081 125.707 237.9 125.571 238.617 125.299C238.992 125.231 239.402 125.231 239.777 125.231C240.733 125.129 241.757 125.503 242.577 124.721C244.249 124.721 245.956 124.687 247.629 124.687C248.653 124.007 249.643 124.007 250.667 124.687C252.032 124.687 253.364 124.721 254.729 124.721C255.583 125.571 256.982 124.755 257.802 125.707C258.143 125.707 258.484 125.741 258.826 125.741C259.338 126.387 260.328 126.115 260.84 126.727C261.522 126.727 262.171 126.762 262.854 126.762C263.195 127.102 263.605 127.374 263.912 127.748C264.253 127.782 264.561 127.782 264.902 127.782C265.346 128.19 265.824 128.224 266.37 128.054C266.745 128.02 267.087 128.088 267.394 128.224C267.701 128.428 267.974 128.632 268.281 128.836C268.589 129.04 268.862 129.244 269.135 129.448C269.51 129.822 269.613 130.4 269.988 130.774C270.33 131.114 270.637 131.455 270.978 131.761C278.283 136.896 282.824 144.038 286.237 152.063C287.842 152.982 287.978 154.682 288.559 156.178C288.661 156.722 288.729 157.233 288.763 157.777C288.832 161.518 288.798 165.292 288.798 169.033C288.832 169.543 288.832 170.054 288.866 170.53C288.798 171.482 288.524 172.4 288.285 173.318C288.149 173.93 287.91 174.543 287.705 175.155C287.432 175.903 287.125 176.651 286.852 177.399C286.749 177.773 286.613 178.113 286.442 178.487C286.237 178.997 285.998 179.508 285.759 180.018C285.623 180.358 285.452 180.698 285.281 181.004C285.145 181.344 284.974 181.65 284.804 181.956C284.667 182.296 284.462 182.602 284.292 182.875C284.053 183.351 283.779 183.793 283.506 184.235C283.37 184.541 283.165 184.847 282.96 185.119C282.79 185.425 282.585 185.697 282.346 185.969C282.243 186.105 282.141 186.241 282.039 186.377C281.868 186.649 281.629 186.921 281.424 187.193C281.458 187.193 281.117 187.601 281.117 187.601C280.946 187.908 280.741 188.18 280.536 188.418C280.366 188.724 280.161 188.996 279.922 189.234C279.717 189.54 279.512 189.778 279.273 190.05C279.171 190.186 279.034 190.322 278.932 190.424C278.727 190.696 278.454 190.934 278.215 191.172C278.113 191.308 277.976 191.41 277.84 191.547C277.601 191.819 277.362 192.057 277.089 192.295C276.986 192.431 276.85 192.533 276.713 192.669C276.474 192.941 276.201 193.179 275.962 193.383C275.826 193.519 275.689 193.621 275.553 193.723C275.314 193.961 275.006 194.165 274.733 194.369C274.46 194.607 274.187 194.777 273.88 194.981C273.607 195.185 273.334 195.389 273.061 195.593C272.924 195.695 272.788 195.797 272.651 195.899C272.378 196.137 272.105 196.307 271.832 196.512C271.422 196.818 270.978 197.124 270.569 197.396C270.296 197.6 269.988 197.77 269.681 197.94C269.374 198.11 269.067 198.28 268.759 198.45C268.623 198.552 268.452 198.62 268.281 198.688C267.974 198.858 267.633 198.994 267.291 199.13C266.984 199.334 266.643 199.504 266.336 199.674C265.994 199.844 265.653 199.98 265.277 200.083C264.731 200.253 264.185 200.422 263.605 200.354C263.229 200.252 262.854 200.184 262.478 200.116C261.898 200.082 261.318 200.15 260.874 200.593C260.567 200.899 260.191 201.103 259.781 201.273C258.996 201.613 258.348 202.259 257.494 202.531C256.573 202.701 255.787 202.191 254.9 202.123C253.808 202.361 252.681 201.851 251.725 202.735Z" fill="#FECF83"/>
<path d="M251.532 249.338C256.671 249.946 260.857 253.053 265.519 254.91C272.7 257.747 279.677 261.124 286.722 264.366C288.492 265.177 289.751 265.075 291.282 263.792C299.11 257.207 308.673 255.011 318.509 254.539C328.072 254.1 337.227 256.464 345.565 261.394C348.934 263.387 352 263.792 356 271.593C355.49 272.235 356 274.823 352 282.323C348 289.823 347.411 289.474 342 295.823C337.303 301.328 330.5 302.323 319.5 305.823C317.492 307.951 309.013 307.223 306.291 306.615C298.021 304.825 291.35 300.502 286.075 294.119C280.868 287.838 280.596 280.746 283.557 273.383C283.795 272.776 284.101 272.168 284.442 271.593C285.565 269.803 285.326 268.52 283.25 267.642C280.936 266.663 278.69 265.515 276.376 264.501C267.119 260.449 257.862 256.464 248.639 252.411C248.196 252.208 247.856 251.769 247.482 251.466C248.162 249.507 249.932 249.574 251.532 249.338Z" fill="#347A65"/>
<path d="M387.862 249.442C392.812 251.561 397.865 253.512 402.713 255.866C405.615 257.279 407.868 257.312 410.701 255.597C418.212 251.023 426.167 251.494 434.019 254.722C437 257.323 437 258.823 437.5 262.823C437.5 265.823 436.707 270.175 435 271.823C432.576 274.144 431 277.323 426.5 278.823C420 280.323 414.32 280.217 408.243 275.004C404.113 271.472 401.381 267.571 404.283 261.92C405.512 259.498 403.635 258.658 401.859 257.884C396.909 255.765 391.925 253.713 386.94 251.594C386.189 251.258 385.506 250.787 384.755 250.384C385.609 249.509 386.633 249.139 387.862 249.442Z" fill="#347A65"/>
<path d="M251.519 248.268C251.017 250.62 249.11 250.211 247.504 250.347C245.062 249.597 245.564 247.483 245.53 245.711C245.497 236.063 245.497 226.415 245.463 216.768C245.497 212.029 245.497 207.324 245.53 202.586C250.047 201.29 250.449 201.495 250.482 206.097C250.549 217.893 250.482 229.654 250.516 241.449C250.516 243.427 250.047 245.54 251.452 247.279C251.452 247.62 251.486 247.927 251.519 248.268Z" fill="#FECF83"/>
<path d="M388.02 248.358C387.169 249.298 385.998 249.365 384.826 249.332C384.791 243.995 384.791 238.657 384.755 233.32C384.791 230.332 384.791 227.345 384.826 224.357C386.494 222.142 387.843 223.216 389.156 224.727C390.576 227.211 389.405 229.292 388.056 231.34C388.056 232.011 388.056 232.716 388.056 233.387C388.304 233.589 388.411 233.824 388.304 234.025C388.198 234.226 388.127 234.327 388.02 234.327C388.02 239.026 388.02 243.693 388.02 248.358Z" fill="#FECF83"/>
<path d="M1439.07 30.3789C1432.65 29.4651 1427.38 30.6157 1425.81 38.0276C1415.85 56.0327 1406.06 74.1055 1395.82 91.9753C1392.19 98.338 1388.68 104.836 1385.22 111.267C1382.29 116.682 1378.86 121.86 1376.34 127.478C1374.74 130.998 1372.64 134.179 1370.49 137.361C1368.66 140.136 1366.38 141.726 1362.94 141.252C1363.18 139.526 1362.77 137.97 1362.09 136.379C1354.99 120.506 1354.17 104.092 1358.12 87.3048C1358.52 85.511 1359.17 83.7512 1359.07 81.8898C1359.65 81.3144 1359.44 80.3668 1360.05 79.8253C1360.67 79.2838 1360.43 78.3361 1361.04 77.8284C1361.07 77.49 1361.07 77.1516 1361.11 76.8131C1361.72 76.2716 1361.48 75.3241 1362.13 74.7826C1362.71 74.2411 1362.54 73.2933 1363.15 72.7518C1363.76 72.2103 1363.56 71.2627 1364.17 70.7212C1364.78 70.1797 1364.58 69.2319 1365.19 68.6904C1365.77 68.1489 1365.6 67.2014 1366.21 66.6599H1366.18C1366.48 66.2876 1366.82 65.983 1367.16 65.6107V65.5768C1367.77 65.0692 1367.57 64.0878 1368.22 63.5801C1368.52 63.2417 1368.9 62.9031 1369.2 62.5646V62.531C1369.81 62.0233 1369.61 61.0417 1370.26 60.5341H1370.22C1370.53 60.1618 1370.9 59.8572 1371.24 59.5188C1371.58 59.1803 1371.92 58.8419 1372.23 58.5035V58.4696C1372.87 57.962 1372.64 56.9804 1373.28 56.5066H1373.25C1373.55 56.1343 1373.89 55.7959 1374.27 55.4913C1374.57 55.119 1374.95 54.7806 1375.29 54.476C1375.63 54.1376 1375.97 53.799 1376.31 53.4605C1376.65 53.1221 1376.99 52.7837 1377.33 52.4452C1377.67 52.1068 1378.01 51.7684 1378.35 51.43C1378.69 51.0915 1379.03 50.7531 1379.37 50.4147C1379.71 50.0762 1380.05 49.7378 1380.39 49.3994C1380.73 49.0609 1381.07 48.7223 1381.41 48.3839C1381.75 48.0116 1382.09 47.6732 1382.43 47.3686C1382.73 46.9963 1383.14 46.6579 1383.52 46.3533C1383.82 46.3533 1384.16 46.3194 1384.47 46.2856C1384.81 45.981 1385.15 45.6426 1385.45 45.3042C1385.79 44.9657 1386.13 44.6273 1386.47 44.3227C1386.81 43.9843 1387.15 43.6119 1387.53 43.3073V43.3411C1387.8 43.0704 1388.14 42.8674 1388.51 42.7997C1388.89 42.732 1389.23 42.5627 1389.53 42.292C1389.87 41.9197 1390.25 41.6152 1390.62 41.3106C1390.96 41.3106 1391.27 41.2767 1391.61 41.2428C1391.95 40.9382 1392.29 40.5999 1392.59 40.2953C1393.14 39.6861 1394.09 39.8892 1394.6 39.28C1394.94 38.9415 1395.31 38.6368 1395.69 38.2984C1395.99 38.2984 1396.33 38.2983 1396.64 38.2645C1396.95 37.8922 1397.35 37.6216 1397.69 37.317C1398.03 37.317 1398.34 37.3169 1398.68 37.2831C1398.99 36.9108 1399.39 36.6399 1399.73 36.3354C1400.07 36.3354 1400.38 36.3355 1400.69 36.3017C1400.99 35.9294 1401.4 35.6585 1401.74 35.3539C1402.05 35.3539 1402.39 35.3539 1402.69 35.3201C1403.24 34.7109 1404.19 34.914 1404.73 34.3387C1405.55 33.391 1406.94 34.271 1407.76 33.3234C1408.57 32.3757 1410 33.2555 1410.82 32.3079C1411.16 32.3079 1411.5 32.2742 1411.84 32.2742C1412.38 31.665 1413.34 31.9357 1413.88 31.3265C1414.56 31.2926 1415.21 31.2926 1415.89 31.2587C1416.74 30.3788 1418.1 31.225 1418.95 30.3112C1419.29 30.3112 1419.59 30.3112 1419.93 30.2773C1421.8 29.0251 1424.15 30.5481 1426.05 29.2959C1430.4 29.2959 1434.76 29.2959 1439.14 29.2959C1439.69 29.702 1439.69 30.0067 1439.07 30.3789Z" fill="#FECF83" fill-opacity="0.85"/>
<path d="M209.126 168.545C208.756 168.896 208.386 169.247 208.017 169.598C207.758 169.001 207.351 168.405 207.24 167.773C207.056 166.825 206.834 165.526 208.313 165.561C209.348 165.561 209.015 166.825 209.089 167.562C209.126 167.878 209.126 168.229 209.126 168.545Z" fill="#E3A476"/>
<path d="M268.719 129.906C268.406 129.906 268.124 129.906 267.812 129.87C267.53 129.47 267.155 129.18 266.874 128.817C266.561 128.817 266.28 128.817 265.967 128.781C265.686 128.563 265.592 128.309 265.686 128.092C265.779 127.874 265.873 127.729 265.967 127.729C268.218 126.132 268.719 128.563 269.688 129.906C269.375 130.341 269.063 130.341 268.719 129.906Z" fill="#E3A476"/>
<path d="M236.506 127.171C236.127 127.171 235.748 127.204 235.369 127.204C235.938 124.883 238.059 125.286 239.876 125.186C240.596 125.522 240.596 125.859 239.876 126.161C239.498 126.161 239.119 126.195 238.778 126.195C238.172 126.8 237.112 126.531 236.506 127.171Z" fill="#E3A476"/>
<path d="M210.135 156.477C210.111 157.497 210.111 158.484 210.086 159.505C208.762 158.45 208.835 157.429 210.135 156.477Z" fill="#E3A476"/>
<path d="M257.575 126.191C256.465 126.216 255.355 126.141 254.547 125.471C254.884 125.471 255.22 125.471 255.59 125.446C255.927 125.099 256.263 125.099 256.6 125.446C256.936 125.719 257.273 125.943 257.575 126.191Z" fill="#E3A476"/>
<path d="M213.966 145.27C213.966 145.563 213.945 145.826 213.945 146.119C213.741 146.47 213.557 146.47 213.352 146.119C212.821 145.007 213.536 144.802 213.966 144.363C214.15 144.568 214.211 144.744 214.15 144.948C214.088 145.183 214.027 145.27 213.966 145.27Z" fill="#E3A476"/>
<path d="M239.407 126.189C239.407 125.843 239.407 125.497 239.407 125.186C240.416 125.186 241.426 125.186 242.435 125.186C241.628 126.12 240.551 126.224 239.407 126.189Z" fill="#E3A476"/>
<path d="M256.334 125.186C256.075 125.186 255.816 125.186 255.557 125.186C255.634 124.779 255.686 124.131 256.179 124.179C256.931 124.275 256.36 124.827 256.334 125.186Z" fill="#E3A476"/>
<path d="M250.51 125.186C249.489 125.186 248.502 125.186 247.482 125.186C248.502 123.84 249.489 123.84 250.51 125.186Z" fill="#E3A476"/>
<path d="M260.604 127.205C259.783 127.135 259.098 126.857 258.585 126.195C259.372 126.265 260.056 126.543 260.604 127.205Z" fill="#E3A476"/>
<path d="M235.37 127.204C234.865 127.865 234.158 128.144 233.351 128.213C233.889 127.552 234.596 127.274 235.37 127.204Z" fill="#E3A476"/>
<path d="M212.154 150.42C212.084 151.227 211.806 151.934 211.145 152.439C211.179 151.631 211.458 150.925 212.154 150.42Z" fill="#E3A476"/>
<path d="M214.173 145.373C214.173 145.036 214.173 144.7 214.173 144.363C214.521 144.363 214.834 144.363 215.182 144.363C214.834 144.7 214.521 145.036 214.173 145.373Z" fill="#E3A476"/>
<path d="M213.163 146.383C213.511 146.383 213.825 146.383 214.173 146.383C213.825 146.708 213.511 147.034 213.163 147.392C213.163 147.067 213.163 146.741 213.163 146.383Z" fill="#E3A476"/>
<path d="M263.632 128.213C263.306 127.865 262.98 127.552 262.622 127.204C262.98 127.517 263.306 127.865 263.632 128.213Z" fill="#E3A476"/>
<path d="M231.096 129.19C230.838 129.223 230.58 129.223 230.323 129.223C230.58 128.887 230.838 128.55 231.096 128.214C231.302 128.449 231.38 128.651 231.302 128.887C231.225 129.089 231.174 129.19 231.096 129.19Z" fill="#E3A476"/>
<path d="M231.332 129.223C231.332 128.875 231.332 128.562 231.332 128.214C231.658 128.214 232.016 128.214 232.341 128.249C231.983 128.562 231.658 128.91 231.332 129.223Z" fill="#E3A476"/>
<path d="M265.65 128.214C265.65 128.562 265.65 128.875 265.65 129.223C265.325 128.875 264.999 128.562 264.641 128.214C264.967 128.214 265.325 128.214 265.65 128.214Z" fill="#E3A476"/>
<path d="M396.581 183.315C399.201 185.644 402.06 187.733 403.897 190.884C411.146 203.384 405.19 220.2 389.673 223.111C388.822 223.282 388.04 223.522 387.427 224.104C386.44 223.522 385.42 223.556 384.433 224.104C382.867 222.563 380.621 223.111 378.784 222.323C371.774 219.241 366.874 214.412 365.138 206.74C364.39 203.35 364.356 199.96 365.172 196.569C365.206 196.227 365.206 195.918 365.206 195.576C365.819 195.028 365.547 194.035 366.193 193.521C366.227 193.213 366.227 192.87 366.227 192.562C366.567 192.219 366.874 191.843 367.214 191.5C367.486 191.226 367.656 190.884 367.724 190.473C367.792 190.096 367.963 189.754 368.235 189.48C368.575 189.137 368.915 188.795 369.256 188.452C369.596 188.11 369.936 187.767 370.277 187.425C370.617 187.082 370.957 186.774 371.297 186.397C371.638 186.055 371.978 185.713 372.318 185.37C372.659 185.028 372.999 184.685 373.339 184.343C373.85 183.726 374.837 183.932 375.347 183.315C375.687 182.973 376.062 182.664 376.402 182.322C376.708 182.322 377.048 182.322 377.355 182.288C377.899 181.637 378.852 181.911 379.396 181.295C379.737 181.295 380.077 181.295 380.383 181.26C383.514 180.199 386.713 181.021 389.877 180.781C390.49 180.747 391.034 180.918 391.511 181.26C391.851 181.295 392.157 181.295 392.498 181.295C393.042 181.911 393.995 181.671 394.539 182.288C395.05 182.938 396.071 182.63 396.581 183.315Z" fill="#FECF83"/>
<path d="M390.511 181.679C387.258 181.679 383.971 181.711 380.718 181.711C383.807 179.882 387.258 181.175 390.511 180.796C390.774 180.985 390.873 181.206 390.774 181.395C390.676 181.584 390.61 181.679 390.511 181.679Z" fill="#E3A476"/>
<path d="M254.547 201.905C254.547 202.251 254.547 202.562 254.547 202.907C253.549 202.907 252.552 202.907 251.519 202.907C252.345 201.905 253.446 201.871 254.547 201.905Z" fill="#E3A476"/>
<path d="M379.709 181.71C379.17 182.371 378.497 182.65 377.69 182.719C378.195 182.058 378.901 181.78 379.709 181.71Z" fill="#E3A476"/>
<path d="M394.849 182.719C394.042 182.65 393.335 182.371 392.83 181.71C393.638 181.78 394.344 182.058 394.849 182.719Z" fill="#E3A476"/>
<path d="M396.868 183.728C396.06 183.661 395.387 183.358 394.849 182.719C395.522 182.719 396.195 182.719 396.868 182.719C396.868 183.055 396.868 183.392 396.868 183.728Z" fill="#E3A476"/>
<path d="M375.671 183.729C375.158 184.368 374.474 184.671 373.652 184.738C374.131 184.099 374.85 183.796 375.671 183.729Z" fill="#E3A476"/>
<path d="M262.622 199.879C262.622 200.227 262.622 200.54 262.622 200.888C261.949 200.888 261.276 200.888 260.604 200.888C261.108 200.227 261.815 199.949 262.622 199.879Z" fill="#E3A476"/>
<path d="M390.812 181.685C390.812 181.346 390.812 181.04 390.812 180.701C391.148 181.04 391.485 181.38 391.821 181.685C391.485 181.719 391.148 181.719 390.812 181.685Z" fill="#E3A476"/>
<path d="M376.681 182.719C376.355 183.067 375.997 183.38 375.671 183.728C375.997 183.38 376.355 183.032 376.681 182.719Z" fill="#E3A476"/>
<path d="M372.643 185.748C372.307 186.085 371.97 186.421 371.634 186.757C371.97 186.387 372.307 186.051 372.643 185.748Z" fill="#E3A476"/>
<path d="M369.615 188.775C369.279 189.112 368.942 189.448 368.606 189.785C368.976 189.448 369.279 189.112 369.615 188.775Z" fill="#E3A476"/>
<path d="M368.606 189.785C368.572 190.049 368.572 190.313 368.538 190.577C368.236 190.867 367.899 190.867 367.596 190.577C367.933 190.313 368.269 190.049 368.606 189.785Z" fill="#E3A476"/>
<path d="M1494.98 60.592C1498.32 64.5854 1500.22 69.4927 1503.12 73.7569C1503.46 75.1107 1503.8 76.4303 1504.14 77.7841C1502.68 77.9194 1501.69 78.7318 1501.04 80.0517C1498.32 85.602 1494.57 90.6106 1492.22 96.3977C1491.67 97.7853 1490.85 99.1053 1490.04 100.358C1485.71 106.923 1482.2 113.962 1478.45 120.832C1475.86 125.537 1473.17 130.139 1470.65 134.877C1469.63 136.84 1467.89 138.871 1469.66 141.307C1467.48 143.406 1464.52 144.15 1462.1 145.91C1459.54 147.771 1457.23 149.802 1455.42 152.374C1455.08 152.713 1454.77 153.051 1454.43 153.389C1454.09 153.728 1453.79 154.1 1453.41 154.405C1453.41 154.743 1453.41 155.082 1453.38 155.42C1453 155.725 1452.76 156.131 1452.39 156.435C1452.39 156.774 1452.39 157.112 1452.36 157.451C1452.02 157.789 1451.71 158.127 1451.37 158.466C1451.37 158.804 1451.37 159.143 1451.33 159.481C1450.96 159.786 1450.72 160.192 1450.35 160.496C1450.35 160.835 1450.35 161.173 1450.35 161.512C1449.7 162.053 1449.97 163.001 1449.36 163.542C1449.36 164.219 1449.36 164.896 1449.32 165.573C1448.71 166.114 1448.95 167.062 1448.34 167.604C1448.34 170.616 1448.34 173.628 1448.34 176.673C1448.64 181.75 1446.9 182.968 1441.22 181.716C1431.06 181.784 1432.19 180.701 1432.05 190.685C1432.02 193.087 1432.8 195.659 1431.06 197.859C1429.39 196.404 1429.05 194.475 1429.02 192.377C1428.92 187.909 1429.36 183.544 1426.29 179.449C1424.18 176.606 1426.33 173.289 1427.89 170.514C1434.16 159.21 1440.16 147.738 1446.5 136.468C1458.18 115.688 1469.53 94.7057 1481.04 73.8584C1483.33 69.7295 1485.68 65.6683 1488.91 62.1825C1490.31 60.6934 1491.57 59.0352 1494.02 59.7459C1494.4 59.9151 1494.7 60.2535 1494.98 60.592Z" fill="#FECF83" fill-opacity="0.85"/>
<path d="M1504.81 87.3701C1504.42 86.9588 1504.04 86.5848 1503.65 86.1735C1502.78 85.0891 1502.78 84.0048 1503.65 82.9204C1504.94 81.8361 1505.8 82.3596 1506.54 83.444C1507.7 85.351 1506.71 86.5101 1504.81 87.3701Z" fill="#E3A476"/>
<path d="M1506.16 79.7648C1505.44 79.2521 1505.19 78.5472 1505.15 77.7461C1505.84 78.2908 1506.12 78.9958 1506.16 79.7648Z" fill="#E3A476"/>
<path d="M1507.17 82.7922C1506.46 82.2795 1506.16 81.5745 1506.16 80.7734C1506.83 81.3182 1507.13 82.0231 1507.17 82.7922Z" fill="#E3A476"/>
<path d="M1506.16 130.232C1506.16 129.109 1506.29 128.021 1507.17 127.204C1508.28 127.204 1509.39 127.272 1510.2 128.225C1508.85 128.871 1507.51 129.552 1506.16 130.232Z" fill="#E3A476"/>
<path d="M1505.15 132.252C1505.19 131.465 1505.49 130.781 1506.16 130.233C1506.12 131.02 1505.82 131.705 1505.15 132.252Z" fill="#E3A476"/>
<path d="M1503.13 137.298C1503.2 136.504 1503.48 135.809 1504.14 135.279C1504.07 136.073 1503.79 136.769 1503.13 137.298Z" fill="#E3A476"/>
<path d="M1502.12 139.317C1502.19 138.495 1502.49 137.811 1503.13 137.298C1503.03 138.085 1502.76 138.803 1502.12 139.317Z" fill="#E3A476"/>
<path d="M1501.11 141.336C1501.21 140.515 1501.5 139.831 1502.12 139.317C1502.03 140.104 1501.76 140.823 1501.11 141.336Z" fill="#E3A476"/>
<path d="M1554.44 299.603C1554.17 300.738 1553.96 301.873 1553.62 302.974C1553.03 304.676 1552.01 305.31 1550.12 304.509C1545.81 302.64 1541.56 300.605 1536.97 299.337C1535.15 298.836 1534.98 297.702 1536.28 296.4C1538.16 294.498 1540.12 292.663 1542.04 290.794C1543.48 289.426 1544.98 289.326 1546.52 290.661C1548.92 292.763 1550.91 295.232 1553.69 296.934C1554.64 297.568 1554.78 298.569 1554.44 299.603Z" fill="#124838"/>
<path d="M1535.25 307.881C1539.64 309.692 1544.03 311.435 1548.38 313.313C1549.41 313.749 1550.41 314.453 1551.24 315.225C1552.74 316.633 1552.84 318.477 1552.27 320.288C1551.71 322.133 1549.95 321.797 1548.52 321.864C1539.67 322.3 1539.64 322.3 1536.35 314.051C1535.62 312.274 1535.05 310.396 1534.42 308.585C1534.69 308.35 1534.99 308.116 1535.25 307.881Z" fill="#124838"/>
<path d="M1439.56 180.766C1441.12 180.183 1442.64 179.496 1444.24 179.016C1445.93 178.501 1446.67 177.403 1446.61 175.653C1448.03 179.222 1448.3 183.133 1450.26 186.565C1451.07 188.006 1451.78 189.55 1452.66 190.991C1449.38 191.54 1447.11 193.976 1444.4 195.588C1440.75 197.784 1439.67 197.235 1439.6 192.981C1439.5 188.898 1439.56 184.815 1439.56 180.766Z" fill="#124838"/>
<path d="M1424.47 180.766C1426.02 180.183 1427.55 179.496 1429.14 179.016C1430.83 178.501 1431.57 177.403 1431.51 175.653C1432.93 179.222 1433.2 183.133 1435.16 186.565C1435.97 188.006 1436.69 189.55 1437.57 190.991C1434.28 191.54 1432.01 193.976 1429.31 195.588C1425.65 197.784 1424.57 197.235 1424.5 192.981C1424.4 188.898 1424.47 184.815 1424.47 180.766Z" fill="#124838"/>
<path d="M1432.45 181.253C1430.78 180.614 1429.14 179.862 1427.42 179.336C1425.6 178.773 1424.8 177.57 1424.87 175.653C1423.34 179.562 1423.05 183.846 1420.93 187.604C1420.06 189.182 1419.29 190.873 1418.35 192.451C1421.88 193.053 1424.32 195.721 1427.24 197.487C1431.18 199.892 1432.34 199.291 1432.42 194.631C1432.53 190.159 1432.45 185.687 1432.45 181.253Z" fill="#124838"/>
<path d="M287.795 166.572C287.764 167.996 287.985 169.488 286.847 170.607C286.847 166.233 286.847 161.859 286.847 157.485C288.586 160.367 287.479 163.555 287.795 166.572Z" fill="#E3A476"/>
<path d="M236.379 127.205C236.883 126.543 237.59 126.265 238.397 126.195C237.859 126.857 237.186 127.135 236.379 127.205Z" fill="#E3A476"/>
<path d="M286.847 171.616C286.775 172.424 286.487 173.097 285.838 173.635C285.874 172.827 286.162 172.121 286.847 171.616Z" fill="#E3A476"/>
<path d="M285.837 175.653C285.768 176.461 285.489 177.167 284.828 177.672C284.898 176.865 285.176 176.158 285.837 175.653Z" fill="#E3A476"/>
<path d="M259.594 200.889C259.594 201.237 259.594 201.55 259.594 201.898C258.932 201.898 258.27 201.898 257.575 201.898C258.105 201.237 258.8 200.923 259.594 200.889Z" fill="#E3A476"/>
<path d="M264.641 199.879C264.315 199.879 263.99 199.879 263.632 199.879C263.957 199.554 264.315 199.194 264.641 198.869C264.641 199.194 264.641 199.554 264.641 199.879Z" fill="#E3A476"/>
<path d="M365.578 196.851C365.578 200.215 365.578 203.58 365.548 206.944C364.237 203.58 364.237 200.215 365.578 196.851Z" fill="#E3A476"/>
<path d="M366.587 193.823C366.517 194.631 366.239 195.337 365.578 195.842C365.612 195.034 365.891 194.328 366.587 193.823Z" fill="#E3A476"/>
<path d="M367.631 190.794C367.944 190.794 368.292 190.794 368.606 190.794C368.258 191.13 367.944 191.467 367.596 191.803C367.631 191.433 367.631 191.097 367.631 190.794Z" fill="#E3A476"/>
<path d="M367.596 191.805C367.248 192.13 366.935 192.488 366.587 192.814C366.935 192.488 367.283 192.163 367.596 191.805Z" fill="#E3A476"/>
<path d="M281.892 73.0609C283.269 71.8588 282.627 70.0711 283.086 68.5916C286.513 57.1872 294.469 50.5912 306.312 49.8206C308.577 49.6665 309.893 48.7726 311.117 46.9541C320.022 33.6387 333.089 27.5358 348.42 25.6248C349.797 25.4398 351.358 25.5015 352.643 25.9638C355 26.8269 356.836 26.1179 358.549 24.6693C370.515 14.5903 384.5 9.65865 399.892 10.1518C419.661 10.7991 436.125 19.0287 448.518 34.8408C451.456 38.5703 453.996 40.6971 459.749 39.7416C481.538 36.1045 499.44 54.783 498.797 73.0301C498.675 73.215 498.583 73.4616 498.583 73.6774C482.15 73.6774 465.747 73.7082 449.314 73.7082C393.466 73.6774 337.648 73.6773 281.8 73.6465C281.953 73.4616 281.953 73.2766 281.892 73.0609Z" fill="#FFF0D3"/>
<path d="M280.883 73.708C337.002 73.7353 393.09 73.7626 449.209 73.7626C465.721 73.7626 482.203 73.7626 498.716 73.7353C499.085 73.8444 499.454 73.9808 499.823 74.0899C499.823 74.2536 499.823 74.4446 499.823 74.6082C498.808 74.6628 497.824 74.7174 496.81 74.7174C425.808 74.7174 354.806 74.7174 283.804 74.7174C282.79 74.7174 281.806 74.6355 280.791 74.6082C280.791 74.4446 280.822 74.2809 280.852 74.1172C280.975 74.0081 280.975 73.8717 280.883 73.708Z" fill="#E3A476"/>
<path d="M499.964 73.7076C499.581 73.5947 499.197 73.4535 498.814 73.3406C498.814 73.1148 498.878 72.9172 499.037 72.7478C503.511 72.7761 507.984 72.7196 512.458 72.8608C513.64 72.889 515.206 72.1268 515.973 73.6794C510.605 73.6794 505.268 73.6794 499.964 73.7076Z" fill="#E3A476"/>
<path d="M281.756 72.8129C281.82 72.962 281.82 73.136 281.724 73.2851C281.82 73.4342 281.82 73.5585 281.692 73.7076C276.355 73.6828 270.987 73.6331 265.65 73.6082C268.654 71.8933 272.009 73.1857 275.205 72.8875C277.346 72.6886 279.551 72.8377 281.756 72.8129Z" fill="#E3A476"/>
<path d="M265.65 73.708C271.023 73.7413 276.428 73.808 281.8 73.8413C281.768 74.0413 281.768 74.2413 281.736 74.4413C276.396 74.2413 270.959 75.5747 265.65 73.708Z" fill="#E3A476"/>
<path d="M499.853 73.7749C504.9 73.7414 509.947 73.7414 514.963 73.708C509.977 75.5794 504.87 74.2427 499.823 74.4098C499.823 74.2093 499.823 73.9754 499.853 73.7749Z" fill="#E3A476"/>
<path d="M873.568 52.3697C876.092 56.3238 877.569 60.6203 877.292 65.415C876.154 65.5084 875.046 65.6329 873.907 65.6329C852.854 65.5395 831.801 65.3839 810.749 65.3216C782.001 65.2593 753.285 65.2905 724.538 65.2593C721.644 65.2593 718.72 65.1659 715.827 65.1037C716.35 61.1807 716.627 57.1955 717.797 53.3971L873.568 52.3697ZM717.828 53.4282C718.382 49.9723 718.659 42.0953 725.03 35.775L727.646 34.5296C727.646 34.5296 729.985 33.5333 730.97 32.6304C740.204 24.1307 751.161 20.5502 763.473 21.1729C768.428 21.422 773.291 22.6985 777.846 24.7845C779.755 25.6563 781.355 25.6251 783.14 24.6288C790.189 20.737 797.76 18.9001 805.793 19.2426C817.274 19.7407 827.4 23.6325 835.772 31.7586C836.695 31.7275 844.451 37.7364 845.621 40.9122C847.806 46.89 853.87 44.7417 863.288 46.1428C869.475 47.0768 872.953 51.8715 873.568 52.3385" fill="#FFF0D3"/>
<path d="M716.429 64.624C719.312 64.6834 722.226 64.7725 725.109 64.7725C753.754 64.8022 782.369 64.7725 811.015 64.8319C831.993 64.8615 852.972 65.0396 873.95 65.1287C875.085 65.1287 876.189 64.9803 877.324 64.9209C881.372 64.9209 885.39 64.9209 889.438 64.9209C889.438 65.1584 889.407 65.3959 889.407 65.6334C829.202 65.6334 768.997 65.6334 708.792 65.6334C708.792 65.3068 708.762 64.9803 708.762 64.6537C711.307 64.6241 713.884 64.624 716.429 64.624Z" fill="#E3A476"/>
<path d="M1494.05 60.6231C1491 62.825 1488.76 65.8739 1486.97 68.9905C1479.41 82.2698 1472.16 95.7185 1464.78 109.065C1458.2 120.956 1451.63 132.846 1444.99 144.736C1442.52 149.14 1440.52 153.747 1437.91 158.084C1434.56 163.707 1431.68 169.601 1428.59 175.394C1427.38 177.664 1426.8 179.832 1429.68 181.39C1431.47 182.339 1431.47 184.066 1431.47 185.76C1431.47 190.13 1431.47 194.5 1431.47 198.87C1426.93 197.989 1423.55 194.974 1419.65 192.806C1418.53 192.196 1418.74 191.146 1419.21 190.164C1420.09 188.335 1421.04 186.573 1421.85 184.744C1423.01 182.169 1422.7 181.424 1419.99 180.882C1415.42 179.967 1410.74 179.527 1406.34 177.731C1404.34 176.918 1402.24 176.342 1400.17 175.665C1398.82 174.649 1397.49 173.632 1396.14 172.65C1399.9 165.57 1403.63 158.456 1407.45 151.41C1409.28 148.056 1411.22 144.804 1412.88 141.349C1415.31 136.268 1418.33 131.491 1421.21 126.647C1425.04 120.312 1429.1 114.045 1431.58 106.999C1432.69 103.848 1435.3 101.884 1437.2 99.3769C1437.81 98.5977 1438.96 98.1913 1439.13 97.1412C1440.59 88.9094 1445.16 82.1682 1449.26 75.1559C1451.87 70.6843 1453.87 65.8401 1456.54 61.3685C1460.37 54.966 1464.2 48.4957 1469.32 42.9401C1469.96 42.2287 1470.33 41.2463 1470.84 40.3994C1471.15 40.4333 1471.45 40.501 1471.76 40.5348C1472.13 40.8397 1472.54 41.077 1472.84 41.4835C1473.18 41.5512 1473.52 41.585 1473.86 41.6528C1474.16 41.9577 1474.47 42.2287 1474.77 42.5336C1475.14 42.8724 1475.58 43.1094 1475.86 43.482C1476.16 43.482 1476.47 43.482 1476.8 43.482C1477.31 44.1256 1477.99 44.4644 1478.77 44.5661C1479.11 44.8709 1479.48 45.2098 1479.82 45.5147C1480.16 45.8534 1480.5 46.1921 1480.84 46.497C1481.17 46.8019 1481.51 47.1068 1481.85 47.4117C1486.46 51.3752 1490.97 55.3385 1494.05 60.6231Z" fill="#E3A476"/>
<path d="M1555 36.9636C1555.19 35.8974 1555.06 34.1332 1555.62 33.8812C1562.87 30.5661 1565.22 22.2687 1571.38 18.1976C1577.59 14.0876 1584.7 11.3735 1592.32 15.1733C1595.11 16.5691 1596.35 15.2702 1598.27 13.3316C1606.01 5.53821 1615.06 0.323242 1626.5 0.323242C1638.52 0.342629 1647.98 5.73206 1655.21 14.7661C1657.81 18.0037 1660.27 18.8373 1663.99 18.8179C1674.87 18.7598 1682.29 26.1072 1682.7 36.983C1640.13 36.983 1597.57 36.9636 1555 36.9636Z" fill="#FFDA91" fill-opacity="0.4"/>
</svg>
