<svg width="1940" height="985" viewBox="0 0 1940 985" fill="none" xmlns="http://www.w3.org/2000/svg">
<path d="M1940 263.823C1940 393.783 1940 854.848 1940 984.842C1294.01 984.842 648.012 984.842 2.01873 984.842C2.01873 914.809 0 508.481 0 438.448C1.18587 437.159 4.66153 441.704 6.45727 441.602C12.6171 432.818 34.2565 437.473 47.9448 436.252C65.8006 434.658 85.1044 430.195 102.955 430.195C117.118 428.534 130.177 426.878 144.339 425.149C163.991 422.741 183.803 420.597 203.387 417.578C230.56 413.339 257.603 409.073 284.641 403.952C332.787 394.829 380.197 384.591 427.971 373.671C472.966 363.361 517.431 354.035 562.156 342.64C598.443 333.382 634.561 323.547 670.747 313.983C673.492 313.271 676 312.582 678.947 311.744C703.647 304.724 728.584 298.416 753.284 291.396C757.214 290.277 759.755 288.31 761.382 284.647C764.024 278.644 767.684 273.15 770.597 267.283C771.648 265.18 772.8 262.636 775.51 262.738C778.56 262.84 779.203 265.824 780.051 268.131C781.27 271.454 782.456 274.778 783.405 278.169C784.455 281.9 786.522 282.714 790.215 281.696C807.698 276.813 825.215 272.099 842.732 267.452C887.05 255.684 931.367 243.95 975.922 233.131C1026.34 220.888 1076.96 209.459 1127.88 199.624C1162.65 192.909 1197.58 187.042 1232.65 182.158C1255.75 178.936 1278.89 176.189 1302.14 174.12C1317.18 172.798 1332.19 171.305 1347.3 170.695C1354.49 170.424 1361.67 169.203 1368.89 170.22C1371.22 171.034 1372.1 172.967 1372.68 175.172C1372.99 176.257 1373.12 177.681 1374.61 177.749C1375.76 177.783 1376.17 176.562 1376.61 175.714C1380.17 169.203 1384.64 163.369 1389.59 157.875C1390.94 156.349 1392.23 154.619 1394.57 155.094C1396.94 155.569 1398.36 157.095 1398.43 159.673C1393.72 167.541 1387.93 174.663 1383.42 182.667C1378.95 190.603 1378.75 190.501 1385.11 197.419C1385.86 197.86 1386.64 198.233 1387.32 198.776C1387.83 199.115 1388.3 199.488 1388.81 199.827C1389.28 200.132 1389.76 200.472 1390.23 200.811C1390.71 201.082 1391.18 201.387 1391.65 201.659C1391.99 201.794 1392.33 201.964 1392.67 202.1C1393.21 202.303 1393.72 202.507 1394.23 202.71C1395.14 203.049 1396.02 203.422 1396.94 203.727C1397.52 203.897 1398.06 204.066 1398.63 204.236C1399.24 204.372 1399.82 204.541 1400.4 204.711C1400.84 204.779 1401.24 204.881 1401.65 204.982C1402.29 205.118 1402.97 205.186 1403.61 205.321C1406.63 205.898 1409.65 205.898 1412.63 205.186C1413.27 204.982 1413.95 204.847 1414.63 204.745C1415.27 204.575 1415.91 204.474 1416.56 204.338C1417.37 204.168 1418.18 203.965 1418.96 203.66C1419.91 203.32 1420.86 202.981 1421.81 202.676C1422.32 202.473 1422.86 202.303 1423.4 202.1C1423.71 201.93 1424.08 201.828 1424.38 201.692C1424.86 201.489 1425.33 201.286 1425.81 201.014C1426.08 200.811 1426.38 200.641 1426.69 200.438C1427.13 200.099 1427.57 199.793 1428.01 199.454C1428.79 198.844 1429.57 198.267 1430.42 197.758C1430.96 197.453 1431.53 197.216 1432.14 197.08C1432.75 196.945 1433.4 196.944 1434.01 197.046C1434.41 197.114 1434.79 197.25 1435.16 197.419C1435.53 197.555 1435.87 197.758 1436.21 197.962C1436.55 198.132 1436.89 198.335 1437.19 198.538C1437.53 198.708 1437.84 198.878 1438.14 199.081C1438.48 199.217 1438.78 199.42 1439.09 199.59C1439.43 199.725 1439.73 199.929 1440.04 200.133C1440.51 200.37 1440.99 200.675 1441.43 200.98C1441.9 201.252 1442.31 201.557 1442.75 201.828C1443.19 202.1 1443.6 202.371 1444.04 202.642C1444.34 202.778 1444.65 202.981 1444.92 203.151C1445.39 203.388 1445.83 203.626 1446.31 203.863C1446.64 203.999 1446.98 204.168 1447.32 204.338C1447.9 204.575 1448.44 204.881 1448.95 205.186C1449.8 205.661 1450.57 206.169 1451.32 206.847C1451.96 207.424 1452.44 208.102 1452.84 208.882C1453.96 211.63 1453.62 214.512 1453.62 217.361C1453.69 237.54 1453.59 257.685 1453.69 277.864C1453.76 278.576 1453.86 279.288 1454.03 279.967C1454.3 281.052 1455.18 281.493 1456.1 281.866C1456.64 282.137 1457.18 282.409 1457.76 282.612C1459.32 283.189 1460.87 283.799 1462.4 284.477C1462.98 284.715 1463.52 284.986 1464.09 285.257C1464.47 285.393 1464.84 285.563 1465.21 285.766C1465.79 286.003 1466.33 286.241 1466.91 286.478C1467.85 286.851 1468.84 287.258 1469.79 287.631C1470.36 287.835 1470.94 288.072 1471.51 288.31C1472.63 288.784 1473.78 289.293 1474.94 289.7C1475.55 289.904 1476.12 290.141 1476.7 290.378C1477.88 290.853 1479.07 291.328 1480.29 291.735C1480.93 291.905 1481.58 292.142 1482.22 292.413C1489.4 295.364 1496.62 298.246 1503.7 301.401C1504.31 301.638 1504.92 301.943 1505.53 302.214C1506.14 302.418 1506.72 302.689 1507.33 302.927C1507.94 303.13 1508.51 303.368 1509.12 303.605C1510.88 304.351 1512.65 305.165 1514.48 305.843C1515.12 306.047 1515.73 306.284 1516.34 306.556C1519.66 308.048 1523.08 309.303 1526.44 310.727C1527.11 310.964 1527.72 311.236 1528.37 311.541C1530.57 312.558 1532.5 313.881 1533.79 316.018C1534.2 316.594 1534.5 317.205 1534.81 317.815C1535.48 319.172 1536.13 320.562 1536.67 321.986C1536.91 322.529 1537.08 323.106 1537.28 323.648C1537.45 323.987 1537.55 324.327 1537.65 324.666C1537.85 325.14 1538.02 325.649 1538.26 326.124C1538.43 326.429 1538.57 326.734 1538.74 327.04C1538.97 327.481 1539.21 327.955 1539.48 328.43C1539.68 328.736 1539.85 329.075 1540.02 329.38C1540.33 329.889 1540.57 330.397 1540.77 330.974C1541.28 332.398 1541.45 333.789 1540.57 335.145C1540.23 335.62 1539.79 336.061 1539.31 336.4C1539.04 336.637 1538.7 336.841 1538.4 337.044C1538.13 337.248 1537.82 337.451 1537.52 337.621C1537.38 337.723 1537.21 337.824 1537.08 337.926C1536.84 338.164 1536.53 338.367 1536.3 338.571C1536.19 338.706 1536.06 338.808 1535.92 338.91C1535.72 339.181 1535.45 339.418 1535.21 339.69C1535.11 339.825 1534.97 339.961 1534.87 340.097C1534.67 340.402 1534.47 340.707 1534.23 341.012C1534.13 341.182 1534.03 341.318 1533.92 341.487C1533.72 341.86 1533.52 342.199 1533.28 342.539C1532.13 344.234 1531.25 346.066 1530.81 348.101C1530.64 348.982 1530.5 349.898 1530.43 350.78C1529.93 354.103 1530.47 357.359 1531.15 360.581C1531.28 361.429 1531.42 362.311 1531.59 363.158C1531.72 363.532 1531.79 363.938 1531.86 364.345C1531.99 364.888 1532.13 365.465 1532.3 366.007C1532.43 366.346 1532.57 366.685 1532.67 367.025C1532.87 367.499 1533.08 368.008 1533.28 368.483C1533.48 368.788 1533.62 369.093 1533.79 369.399C1534.06 369.839 1534.33 370.28 1534.64 370.721C1534.97 371.162 1535.25 371.603 1535.55 372.044C1535.89 372.485 1536.19 372.96 1536.5 373.4C1536.94 374.011 1537.38 374.621 1537.89 375.198C1538.19 375.469 1538.43 375.775 1538.7 376.08C1538.84 376.215 1538.97 376.385 1539.14 376.521C1539.48 376.826 1539.75 377.131 1540.02 377.47C1542.26 379.98 1544.66 382.354 1547.17 384.592C1547.54 384.83 1547.88 385.135 1548.22 385.44C1548.39 385.576 1548.56 385.711 1548.76 385.847C1549.14 386.085 1549.51 386.39 1549.85 386.661C1550.59 387.204 1551.24 387.882 1551.98 388.424C1555.13 389.985 1558.12 391.952 1561.47 393.105C1569.43 395.852 1577.39 397.276 1585.39 393.139C1589.29 391.104 1592.51 392.257 1596.03 394.834C1610.8 405.619 1625.91 415.895 1644.21 420.067C1650.99 421.627 1651.05 421.66 1653.8 415.149C1666.4 385.44 1678.13 355.358 1690.9 325.717C1692.56 321.851 1692.29 318.697 1689.51 315.577C1681.04 306.148 1671.42 298.179 1660.34 292.006C1650.51 286.546 1641.03 280.441 1629.74 278.203C1625.61 277.389 1621.48 276.406 1617.34 276.27C1611.48 276.101 1607.45 273.625 1604.67 268.673C1604.16 267.757 1603.38 267.147 1602.64 266.469C1600.64 265.011 1599.18 262.976 1597.32 261.348C1596.98 261.076 1596.71 260.805 1596.44 260.5C1596.3 260.364 1596.17 260.229 1596 260.093C1595.69 259.856 1595.42 259.584 1595.15 259.313C1595.01 259.211 1594.88 259.042 1594.74 258.94C1594.44 258.736 1594.17 258.465 1593.9 258.228C1593.35 257.787 1592.81 257.312 1592.24 256.871C1591.93 256.701 1591.66 256.464 1591.39 256.261C1591.25 256.159 1591.12 256.057 1590.98 255.955C1590.68 255.786 1590.44 255.582 1590.17 255.379C1589.86 255.209 1589.59 255.04 1589.32 254.836C1588.88 254.599 1588.47 254.327 1588.03 254.09C1587.73 253.954 1587.42 253.785 1587.15 253.581C1586.85 253.446 1586.54 253.242 1586.24 253.073C1586.07 253.005 1585.93 252.903 1585.76 252.835C1585.26 252.598 1584.71 252.394 1584.21 252.157C1583.46 251.886 1582.71 251.547 1582 251.207C1581.46 250.97 1580.95 250.699 1580.41 250.461C1580.07 250.326 1579.73 250.156 1579.39 249.987C1578.89 249.783 1578.41 249.579 1577.9 249.376C1577.4 249.24 1576.89 249.071 1576.34 248.901C1575.8 248.8 1575.26 248.664 1574.72 248.528C1573.97 248.392 1573.19 248.223 1572.45 248.087C1571.84 248.02 1571.23 247.918 1570.62 247.816C1569.36 247.613 1568.11 247.443 1566.86 247.24C1566.21 247.172 1565.57 247.07 1564.96 246.968C1563.91 246.765 1562.83 246.799 1561.74 246.934C1560.83 247.104 1559.91 247.307 1559.03 247.511C1544.09 250.495 1536.87 261.653 1540.26 276.507C1541.18 280.475 1542.6 284.24 1544.33 287.869C1546.12 291.599 1545.44 294.651 1542.6 297.5C1541.04 299.06 1539.45 300.553 1537.85 302.011C1533.69 305.809 1529.32 306.454 1523.96 304.283C1504.99 296.551 1486.12 288.513 1467.14 280.815C1464.94 279.933 1463.01 278.644 1461.21 277.05C1459.62 275.049 1459.62 272.675 1459.62 270.335C1459.55 251.207 1459.62 232.08 1459.59 212.986C1459.59 208.102 1461.38 204.609 1465.62 202.269C1469.28 200.234 1472.33 197.25 1476.36 195.859C1480.05 195.079 1481.75 192.4 1483.07 189.11C1488.52 175.579 1493.64 161.945 1499.6 148.617C1500.75 146.005 1501.91 143.394 1503.63 141.122C1504.21 140.613 1504.89 140.308 1505.63 140.172C1510.51 139.29 1514.41 142.071 1518.68 143.53C1519.08 143.699 1519.46 143.937 1519.83 144.208C1520.17 144.445 1520.51 144.717 1520.81 144.988C1520.98 145.09 1521.12 145.225 1521.29 145.361C1521.63 145.564 1521.93 145.836 1522.2 146.107C1522.54 146.345 1522.81 146.582 1523.12 146.853C1523.45 147.091 1523.76 147.362 1524.03 147.633C1524.2 147.769 1524.34 147.938 1524.47 148.074C1524.78 148.379 1525.05 148.719 1525.32 149.058C1525.45 149.261 1525.56 149.431 1525.66 149.634C1525.86 150.041 1526 150.482 1526.1 150.957C1526.1 151.194 1526.1 151.432 1526.1 151.669C1526.03 152.144 1525.89 152.585 1525.66 153.026C1519.59 167.744 1513.32 182.361 1507.53 197.148C1506.82 198.946 1504.96 201.218 1506.34 202.71C1507.94 204.406 1510.51 202.913 1512.44 202.133C1521.86 198.335 1528.13 191.552 1531.04 181.751C1531.76 179.343 1532.06 176.8 1534.33 175.138C1535.25 174.561 1536.33 174.527 1537.31 174.154C1538.94 173.849 1540.53 173.985 1542.12 174.256C1543.38 174.493 1544.63 174.731 1545.92 174.765C1547.68 174.968 1549.48 174.934 1551.2 175.307C1552.39 175.545 1553.61 175.782 1554.83 175.816C1556.05 175.918 1557.27 175.952 1558.49 176.121C1559.2 176.189 1559.88 176.494 1560.59 176.596C1561.94 176.935 1563.33 177.139 1564.72 177.071C1566.15 177.037 1567.57 177.139 1568.99 177.376C1569.47 177.478 1569.91 177.613 1570.35 177.783C1571.91 178.563 1573.57 178.529 1575.23 178.529C1576.48 178.529 1577.73 178.529 1578.99 178.563C1580.55 178.699 1582.14 178.936 1583.7 178.902C1595.35 180.428 1607.01 181.988 1618.66 183.209C1620.7 183.955 1622.8 184.464 1624.97 184.566C1627.24 185.244 1629.57 185.007 1631.88 185.278C1632.35 185.38 1632.86 185.549 1633.33 185.719C1634.93 186.431 1636.59 186.736 1638.35 186.397C1639.09 186.363 1639.84 186.431 1640.55 186.567C1642.41 186.94 1644.21 187.822 1646.18 187.55C1646.65 187.516 1647.16 187.516 1647.63 187.618C1649.26 187.923 1650.78 188.602 1652.51 188.398C1653.26 188.364 1653.97 188.466 1654.68 188.602C1656.27 188.941 1657.83 189.619 1659.53 189.416C1660.24 189.382 1660.95 189.449 1661.66 189.619C1663.01 189.924 1664.34 190.399 1665.76 190.365C1666.47 190.365 1667.18 190.467 1667.86 190.637C1669.45 191.01 1670.98 191.62 1672.67 191.417C1673.38 191.383 1674.09 191.45 1674.81 191.62C1676.4 191.925 1677.89 192.705 1679.58 192.57C1680.06 192.536 1680.53 192.57 1680.97 192.671C1682.53 192.977 1684.02 193.757 1685.68 193.587C1686.16 193.553 1686.6 193.621 1687.07 193.689C1688.39 193.994 1689.71 194.401 1691.1 194.333C1692.05 194.333 1692.97 194.469 1693.88 194.638C1695.2 194.944 1696.52 195.418 1697.91 195.418C1698.62 195.418 1699.3 195.52 1699.98 195.69C1701.3 195.961 1702.52 196.571 1703.88 196.605C1704.32 196.605 1704.72 196.673 1705.16 196.741C1706.11 196.945 1707.03 197.284 1708.01 197.046C1708.31 196.911 1708.62 196.775 1708.92 196.605C1709.16 196.368 1709.4 196.165 1709.64 195.927C1709.81 195.656 1709.98 195.384 1710.14 195.113C1710.35 194.638 1710.52 194.197 1710.69 193.723C1710.79 193.384 1710.92 193.078 1711.06 192.773C1711.26 192.298 1711.5 191.823 1711.7 191.383C1711.84 191.077 1711.97 190.772 1712.14 190.467C1712.35 189.992 1712.62 189.585 1712.79 189.11C1712.89 188.771 1713.02 188.466 1713.16 188.195C1713.33 187.72 1713.5 187.245 1713.67 186.77C1713.77 186.431 1713.91 186.126 1714.04 185.821C1714.21 185.346 1714.45 184.905 1714.68 184.43C1714.82 184.125 1714.96 183.82 1715.13 183.514C1715.33 183.074 1715.63 182.633 1715.84 182.192C1715.94 181.887 1716.11 181.581 1716.28 181.31C1716.48 180.869 1716.72 180.428 1716.89 179.953C1716.99 179.614 1717.12 179.309 1717.26 179.004C1717.43 178.529 1717.6 178.02 1717.77 177.546C1717.87 177.206 1717.97 176.867 1718.11 176.528C1718.31 176.019 1718.55 175.545 1718.72 175.07C1718.82 174.731 1718.95 174.392 1719.12 174.052C1719.33 173.51 1719.53 173.001 1719.73 172.458C1719.83 172.051 1720 171.712 1720.17 171.339C1720.44 170.729 1720.78 170.22 1721.16 169.677C1721.46 169.304 1721.8 169.033 1722.17 168.762C1723.09 168.321 1723.97 168.185 1724.88 168.796C1727.66 171.238 1727.15 174.9 1728.37 177.952C1728.54 178.359 1728.68 178.8 1728.75 179.275C1728.85 180.36 1729.12 181.412 1729.46 182.463C1729.59 182.904 1729.66 183.311 1729.73 183.752C1730.37 185.617 1730.64 187.584 1731.39 189.449C1731.56 189.856 1731.69 190.263 1731.76 190.67C1731.86 191.688 1732.13 192.671 1732.51 193.655C1732.68 194.028 1732.78 194.401 1732.88 194.808C1733.08 195.554 1733.32 196.334 1733.52 197.08C1733.73 197.657 1733.86 198.267 1733.96 198.844C1734.07 199.183 1734.17 199.556 1734.23 199.861C1734.23 199.793 1734.37 200.234 1734.4 200.166C1734.4 200.099 1734.64 200.336 1734.64 200.302C1734.64 200.268 1734.84 200.132 1734.84 200.065C1734.91 199.793 1734.98 199.59 1735.08 199.319C1735.15 198.979 1735.25 198.708 1735.35 198.437C1735.52 197.928 1735.66 197.453 1735.83 196.945C1735.89 196.572 1736.03 196.232 1736.17 195.893C1736.4 195.215 1736.67 194.503 1736.88 193.791C1736.95 193.418 1737.08 193.078 1737.22 192.705C1737.45 191.993 1737.69 191.281 1737.89 190.535C1737.96 190.128 1738.1 189.755 1738.23 189.382C1738.54 188.602 1738.88 187.855 1739.11 187.075C1739.28 186.668 1739.52 186.296 1739.79 185.922C1741.52 184.057 1742.98 184.532 1744.3 186.397C1744.53 186.77 1744.7 187.211 1744.81 187.618C1744.87 188.703 1745.11 189.721 1745.65 190.67C1745.79 191.077 1745.86 191.484 1745.92 191.891C1746.06 192.909 1746.43 193.824 1746.74 194.808C1746.87 195.181 1746.97 195.588 1747.01 195.995C1747.11 196.775 1747.38 197.555 1747.62 198.301C1747.79 198.674 1747.86 199.081 1747.92 199.488C1748.06 200.268 1748.43 201.014 1748.67 201.76C1748.8 202.133 1748.91 202.507 1749.01 202.88C1749.18 203.388 1749.35 203.897 1749.65 204.372C1749.92 204.609 1750.16 204.846 1750.4 205.084C1750.87 205.355 1751.34 205.559 1751.89 205.695C1752.29 205.762 1752.63 205.864 1753.01 205.966C1753.95 206.271 1754.9 206.508 1755.92 206.576C1756.56 206.61 1757.17 206.746 1757.78 206.881C1759 207.153 1760.15 207.729 1761.44 207.729C1761.88 207.729 1762.29 207.797 1762.7 207.899C1763.71 208.136 1764.66 208.577 1765.71 208.713C1766.12 208.747 1766.52 208.848 1766.93 208.95C1767.91 209.221 1768.9 209.561 1769.91 209.628C1770.56 209.662 1771.17 209.798 1771.78 209.968C1772.79 210.205 1773.74 210.646 1774.79 210.748C1775.23 210.782 1775.64 210.883 1776.04 210.985C1777.03 211.256 1777.98 211.765 1779.03 211.867C1779.43 211.901 1779.84 211.968 1780.25 212.07C1781.2 212.342 1782.14 212.681 1783.16 212.715C1783.77 212.749 1784.38 212.884 1784.96 213.02C1785.94 213.257 1786.85 213.698 1787.87 213.766C1788.28 213.8 1788.68 213.902 1789.06 214.003C1790 214.275 1790.92 214.716 1791.94 214.784C1792.34 214.817 1792.75 214.919 1793.12 215.021C1794.07 215.258 1794.99 215.733 1796 215.801C1796.41 215.835 1796.81 215.937 1797.19 216.038C1798.14 216.31 1799.05 216.75 1800.1 216.818C1800.51 216.852 1800.91 216.954 1801.32 217.056C1802.34 217.361 1803.32 217.7 1804.37 217.802C1804.84 217.836 1805.25 217.937 1805.69 218.039C1806.84 218.378 1808 218.582 1809.18 218.751C1845.44 228.01 1880.88 239.812 1915.94 252.767C1922.08 255.04 1928.17 257.346 1934.38 259.449C1936.61 260.296 1938.81 261.314 1940 263.823Z" fill="#124838"/>
<path d="M677.85 313.813C669.415 317.205 659.905 318.836 651.164 321.211C620.505 329.453 589.812 337.594 559.085 345.531C534.185 351.976 509.284 358.251 484.283 364.255C445.425 373.583 406.533 382.639 367.404 390.848C343.588 395.868 319.738 400.719 295.854 405.332C269.836 410.386 243.75 414.897 217.563 419.001C197.541 422.156 177.486 425.243 157.43 428.058C141.677 430.263 125.89 432.196 110.069 434.096C98.11 435.554 86.0834 436.674 74.1245 438.166C61.8269 439.693 49.4615 440.541 37.13 441.796C30.9981 442.44 24.7985 442.949 18.5989 443.254C12.3993 443.526 6.23351 444.17 0 444.068C0 371.989 0 299.909 0 227.829C0.779188 227.049 1.28736 225.997 2.4392 225.59C3.82819 225.353 5.25105 225.116 6.60616 224.742C14.4997 224.607 22.3254 223.318 30.2528 223.318C32.9292 223.25 35.6055 223.419 38.2819 223.08C41.568 222.775 44.9558 223.386 48.1742 222.334C70.2625 221.079 92.4185 221.045 114.507 220.265C138.831 219.417 163.088 220.876 187.344 220.876C206.383 220.876 225.456 222.402 244.53 223.657C246.224 223.759 247.884 223.928 249.306 224.946C251.373 226.642 251.373 229.016 251.407 231.357C251.508 237.869 251.407 244.382 251.475 250.895C251.508 252.896 251.373 254.931 252.423 256.729C253.473 258.018 254.49 259.103 256.217 259.782C265.568 263.513 274.749 267.719 283.963 271.789C290.705 274.774 291.044 276.131 288.74 283.017C286.436 289.902 287.283 296.245 292.365 301.774C296.905 306.727 302.223 310.322 308.796 312.052C311.743 312.832 313.877 312.222 316.079 310.119C323.837 302.656 330.816 294.448 338.1 286.544C340.946 283.458 344.029 280.574 346.739 277.386C350.093 273.383 350.025 271.993 345.485 269.72C330.071 262.088 314.555 262.122 299.75 270.907C294.432 274.062 290.265 274.503 284.844 271.857C277.459 268.228 269.87 265.005 262.315 261.715C259.436 260.46 256.319 259.442 254.253 256.763C254.015 256.22 253.88 255.677 253.88 255.067C254.117 245.739 253.135 236.377 254.388 227.049C256.353 224.403 259.165 224.607 261.977 224.878C262.519 225.048 263.061 225.217 263.603 225.353C265.94 226.337 268.312 226.133 270.717 225.692C272.343 225.658 274.003 225.692 275.596 225.997C278.17 226.608 280.745 227.49 283.455 226.744C284.81 226.642 286.165 226.744 287.521 227.015C289.553 227.49 291.552 228.134 293.686 227.761C295.041 227.693 296.363 227.795 297.684 228.067C299.683 228.541 301.681 229.152 303.816 228.779C305.171 228.711 306.492 228.813 307.813 229.084C310.083 229.593 312.319 230.475 314.724 229.898C315.808 229.796 316.859 229.898 317.909 230.102C319.874 230.577 321.839 231.221 323.939 230.848C325.26 230.746 326.548 230.882 327.835 231.119C329.326 231.458 330.816 231.798 332.341 231.73C333.662 231.764 334.983 231.866 336.305 232.103C338.405 232.68 340.539 232.985 342.741 232.68C356.191 234.308 369.539 236.479 382.988 238.039C385.122 238.276 387.257 238.921 388.984 240.379C391.186 245.06 389.425 250.08 390.069 254.863C390.306 256.898 391.898 257.577 393.49 258.119C397.623 259.544 401.316 261.953 405.517 263.309C408.871 264.395 410.192 266.566 409.48 270.297C408.363 276.267 413.241 282.508 419.169 283.152C421.372 283.39 423.201 282.508 424.59 280.981C428.317 276.877 432.212 272.909 435.736 268.635C438.751 264.971 438.107 263.411 433.33 262.088C427.47 260.426 421.643 260.46 416.222 263.479C412.665 265.446 409.616 265.514 405.855 263.614C401.993 261.681 398.03 259.748 393.931 258.289C392.304 257.712 390.814 257.034 390.204 255.202C390.204 250.861 389.56 246.553 390.577 242.245C390.882 241.736 391.288 241.295 391.796 240.956C393.117 240.244 394.506 240.074 395.963 240.244C397.251 240.379 398.504 240.719 399.791 240.888C400.774 240.99 401.722 241.16 402.671 241.363C404.026 241.668 405.347 242.143 406.77 242.143C407.482 242.143 408.159 242.245 408.837 242.415C410.158 242.72 411.445 243.195 412.834 243.195C413.512 243.195 414.189 243.296 414.867 243.432C415.951 243.67 417.069 243.941 418.187 244.009C419.102 244.077 420.016 244.212 420.897 244.416C422.219 244.721 423.506 245.196 424.895 245.196C425.572 245.196 426.25 245.298 426.927 245.433C428.012 245.671 429.096 245.942 430.248 246.044C431.162 246.112 432.043 246.248 432.924 246.451C434.008 246.688 435.092 246.96 436.21 247.062C437.125 247.129 438.006 247.299 438.886 247.503C439.97 247.774 441.021 248.147 442.105 248.283C442.545 248.317 442.986 248.418 443.426 248.52C444.679 248.893 445.933 249.266 447.254 249.165C448.169 249.165 449.05 249.266 449.931 249.436C450.811 249.606 451.692 249.775 452.539 249.945C453.42 250.081 454.267 250.284 455.148 250.488C456.198 250.759 457.248 251.064 458.332 251.166C458.976 251.234 459.62 251.335 460.263 251.505C461.313 251.776 462.33 252.082 463.414 252.183C464.057 252.251 464.701 252.353 465.345 252.523C466.395 252.794 467.411 253.099 468.462 253.201C469.105 253.269 469.749 253.371 470.393 253.54C471.443 253.812 472.459 254.117 473.509 254.219C474.153 254.253 474.797 254.388 475.44 254.558C476.457 254.829 477.507 255.135 478.557 255.236C479.201 255.304 479.845 255.406 480.454 255.575C481.471 255.847 482.487 256.152 483.537 256.254C484.181 256.288 484.791 256.423 485.434 256.559C486.247 256.729 487.094 256.932 487.907 257.068C488.754 257.204 489.567 257.373 490.414 257.577C491.227 257.746 492.041 257.984 492.887 258.153C493.531 258.255 494.141 258.425 494.751 258.594C495.733 258.9 496.75 259.171 497.8 259.273C498.443 259.307 499.053 259.442 499.663 259.612C500.679 259.883 501.662 260.189 502.712 260.29C503.356 260.358 503.966 260.46 504.575 260.63C505.388 260.799 506.168 261.037 506.981 261.24C507.59 261.342 508.166 261.511 508.742 261.681C509.521 261.885 510.267 262.122 511.046 262.292C511.622 262.393 512.198 262.563 512.74 262.733C513.485 262.936 514.23 263.106 515.01 263.207C515.416 263.241 515.789 263.343 516.161 263.479C516.737 263.581 517.347 263.648 517.923 263.784C518.668 264.021 519.448 264.191 520.227 264.327C520.803 264.429 521.379 264.564 521.955 264.734C522.734 264.937 523.479 265.141 524.258 265.31C524.834 265.412 525.41 265.582 525.986 265.717C526.765 265.921 527.511 266.125 528.29 266.294C528.9 266.396 529.475 266.565 530.018 266.735C530.966 267.006 531.881 267.448 532.863 267.515C533.27 267.549 533.642 267.617 534.049 267.753C534.828 267.956 535.573 268.16 536.353 268.329C536.929 268.431 537.505 268.601 538.08 268.736C538.86 268.94 539.605 269.143 540.384 269.313C540.96 269.415 541.536 269.584 542.112 269.72C542.891 269.924 543.636 270.127 544.416 270.297C544.992 270.399 545.567 270.568 546.143 270.704C546.922 270.907 547.668 271.111 548.447 271.28C549.023 271.382 549.599 271.552 550.175 271.721C550.954 271.925 551.699 272.128 552.479 272.298C553.054 272.4 553.63 272.569 554.206 272.739C554.952 272.942 555.731 273.146 556.476 273.349C557.052 273.451 557.628 273.621 558.204 273.79C558.949 274.028 559.694 274.265 560.44 274.503C560.812 274.571 561.185 274.706 561.558 274.842C562.472 275.147 563.319 275.588 564.302 275.622C564.708 275.656 565.081 275.724 565.454 275.86C566.199 276.063 566.944 276.267 567.69 276.436C568.265 276.538 568.841 276.674 569.383 276.843C570.129 277.047 570.874 277.25 571.653 277.42C572.229 277.522 572.805 277.691 573.347 277.861C574.092 278.098 574.804 278.37 575.549 278.573C575.922 278.641 576.295 278.777 576.667 278.878C577.379 279.116 578.124 279.319 578.869 279.489C579.445 279.591 580.021 279.76 580.597 279.93C581.376 280.133 582.155 280.371 582.969 280.574C583.409 280.676 583.815 280.812 584.222 280.981C585.069 281.456 585.984 281.592 586.898 281.694C605.192 286.171 623.046 292.005 640.832 298.111C650.826 301.537 660.955 304.692 670.746 308.66C673.32 309.949 677.003 310.455 677.85 313.813Z" fill="#347A65"/>
<path d="M1602.94 263.146C1605.28 264.606 1606.97 266.643 1608.47 268.918C1609.93 271.193 1611.99 272.178 1614.81 272.314C1626.18 272.79 1637.13 275.472 1647.35 280.464C1652.57 283.045 1657.35 286.611 1662.68 289.124C1671.77 293.436 1678.46 300.941 1686.29 306.884C1689.38 309.261 1691.38 313.064 1693.86 316.222C1695.01 317.717 1694.84 319.279 1694.33 321.011C1693.42 324.101 1691.65 326.818 1690.47 329.772C1683.85 346.14 1677.34 362.576 1670.62 378.91C1665.77 390.727 1660.71 402.477 1655.76 414.261C1655.35 415.178 1654.98 416.128 1654.64 417.079C1653.11 421.731 1652.47 422.071 1647.85 421.29C1641 420.135 1634.73 417.045 1628.08 415.347C1622.34 413.887 1617.9 410.321 1613.18 407.197C1609.42 404.718 1605.85 401.968 1601.58 400.168C1598.56 398.911 1595.91 396.568 1593.71 393.953C1591.74 391.61 1589.64 391.305 1587.06 392.901C1585.77 393.682 1584.34 394.225 1582.89 394.701C1570.67 398.64 1560.19 394.565 1550.39 387.535C1552.66 381.253 1555.37 375.14 1557.95 368.994C1571.42 336.971 1584.58 304.812 1597.68 272.62C1599.03 269.326 1599.78 265.523 1602.94 263.146Z" fill="#124838"/>
<path d="M1602.87 263.535C1602.9 265.224 1602.63 266.812 1601.95 268.4C1595.02 285.057 1588.12 301.714 1581.29 318.371C1576.23 330.704 1570.93 342.968 1566 355.368C1562.43 364.356 1558.25 373.107 1554.79 382.128C1553.94 384.392 1552.31 386.081 1550.24 387.297C1549.56 386.959 1548.88 386.622 1548.2 386.284C1547.89 385.912 1547.52 385.608 1547.18 385.27C1546.84 384.932 1546.46 384.628 1546.16 384.257C1543.07 381.959 1540.35 379.29 1538.07 376.215C1537.7 375.911 1537.39 375.539 1537.05 375.202C1536.71 374.864 1536.41 374.492 1536.03 374.188C1535.69 373.512 1535.35 372.836 1535.01 372.161C1534.64 371.857 1534.37 371.451 1533.99 371.147C1533.65 370.471 1533.31 369.796 1532.97 369.12C1532.6 368.816 1532.33 368.41 1531.95 368.106C1531.95 367.768 1531.95 367.43 1531.95 367.093C1531.58 366.788 1531.31 366.383 1530.94 366.079C1530.94 365.741 1530.94 365.403 1530.94 365.065C1530.29 364.559 1530.56 363.579 1529.92 363.038C1529.92 362.7 1529.92 362.362 1529.92 362.024C1529.27 361.518 1529.54 360.538 1528.9 359.997C1528.05 356.01 1527.64 351.99 1527.88 347.901C1528.52 347.395 1528.25 346.415 1528.9 345.874C1528.73 343.002 1530.53 341.009 1531.92 338.813C1532.29 338.508 1532.6 338.137 1532.94 337.799C1533.28 337.461 1533.62 337.123 1533.96 336.785C1534.3 336.448 1534.64 336.109 1534.98 335.772C1535.32 335.434 1535.66 335.096 1536 334.758C1536.34 334.42 1536.71 334.116 1537.02 333.744C1537.36 333.744 1537.7 333.744 1538.04 333.744C1538.34 333.373 1538.75 333.103 1539.06 332.731C1540.45 331.379 1538.99 330.062 1539.06 328.71C1538.68 328.406 1538.41 328.001 1538.04 327.697C1538.04 327.359 1538.04 327.021 1538.04 326.683C1537.66 326.379 1537.39 325.973 1537.02 325.669C1537.02 325.331 1537.02 324.994 1537.02 324.656C1536.64 324.352 1536.37 323.946 1536 323.642C1536 323.304 1536 322.966 1536 322.629C1535.62 322.324 1535.35 321.919 1534.98 321.615C1534.81 319.756 1533.69 318.236 1532.94 316.58C1532.57 316.276 1532.29 315.871 1531.92 315.567C1531.48 312.661 1529.2 312.053 1526.86 311.546C1526.55 311.175 1526.14 310.904 1525.84 310.533C1522.13 309.181 1518.43 307.863 1514.69 306.512C1514.39 306.14 1513.98 305.87 1513.67 305.498C1511.64 304.823 1509.63 304.147 1507.59 303.471C1507.29 303.099 1506.88 302.829 1506.57 302.457C1505.89 302.457 1505.21 302.457 1504.53 302.457C1504.23 302.086 1503.82 301.815 1503.51 301.444C1496.72 298.741 1489.89 296.004 1483.06 293.301C1482.14 292.93 1481.16 292.693 1480.2 292.389C1479.9 292.017 1479.49 291.747 1479.18 291.375C1477.83 291.037 1476.5 290.699 1475.14 290.361C1474.84 289.99 1474.43 289.72 1474.12 289.348C1472.76 289.01 1471.44 288.672 1470.08 288.334C1469.77 287.963 1469.36 287.692 1469.06 287.321C1467.7 286.983 1466.37 286.645 1465.02 286.307C1464.71 285.936 1464.3 285.665 1464 285.293C1463.66 285.293 1463.32 285.293 1462.98 285.293C1462.67 284.922 1462.26 284.651 1461.96 284.28C1459.92 283.604 1457.91 282.928 1455.88 282.253C1455.57 281.881 1455.16 281.611 1454.86 281.239C1453.84 280.901 1452.82 280.563 1451.83 280.225C1451.39 279.82 1451.36 279.381 1451.7 278.908C1454.62 276.374 1458.93 277.522 1461.92 275.191C1469.87 278.299 1477.96 281.205 1485.78 284.618C1499.5 290.531 1513.4 295.97 1527.23 301.647C1529.34 302.491 1530.97 302.255 1532.84 300.903C1536 298.64 1538.68 295.903 1541.5 293.267C1543.37 291.544 1543.61 290.193 1542.32 287.692C1538.85 280.969 1536.2 273.907 1536.85 266.102C1537.8 254.479 1545.61 244.478 1559.1 243.972C1559.61 243.33 1560.6 243.6 1561.14 242.958C1562.5 242.958 1563.83 242.958 1565.19 242.958C1565.49 243.33 1565.9 243.6 1566.21 243.972C1567.9 243.972 1569.57 243.972 1571.27 243.972C1571.57 244.343 1571.98 244.614 1572.29 244.985C1573.31 244.985 1574.33 244.985 1575.31 244.985C1575.62 245.357 1576.03 245.627 1576.33 245.999C1577.01 245.999 1577.69 245.999 1578.37 245.999C1578.68 246.371 1579.08 246.641 1579.39 247.013C1579.73 247.013 1580.07 247.013 1580.41 247.013C1580.71 247.384 1581.12 247.654 1581.43 248.026C1582.79 248.364 1584.11 248.702 1585.47 249.04C1585.78 249.411 1586.15 249.715 1586.49 250.053C1586.83 250.391 1587.2 250.695 1587.51 251.067C1587.85 251.067 1588.19 251.067 1588.53 251.067C1588.84 251.439 1589.24 251.709 1589.55 252.081C1589.89 252.081 1590.23 252.081 1590.57 252.081C1590.87 252.452 1591.25 252.756 1591.59 253.094C1591.93 253.432 1592.3 253.736 1592.61 254.108C1593.29 254.446 1593.97 254.783 1594.65 255.121C1594.95 255.493 1595.33 255.797 1595.67 256.135C1596.01 256.473 1596.35 256.811 1596.68 257.149C1597.02 257.487 1597.4 257.791 1597.7 258.162C1599.84 259.784 1601.54 261.474 1602.87 263.535Z" fill="#124838"/>
<path d="M1368.37 171.721C1369.18 170.4 1369.35 168.91 1369.42 167.386C1369.83 156.75 1373.97 148.011 1382.5 141.44C1387.32 138.086 1390.51 133.48 1393.26 128.399C1408.85 99.6413 1424.51 70.8837 1440.54 42.3634C1440.95 41.6182 1441.49 40.9409 1441.73 40.1618C1444.34 31.5244 1450.15 28.2727 1458.91 30.0001C1460.44 30.2034 1462.07 29.5596 1463.53 30.4742C1464.18 30.4742 1464.86 30.5081 1465.5 30.5081C1466.35 31.3888 1467.74 30.5759 1468.59 31.4566C1469.24 31.4905 1469.88 31.4903 1470.56 31.5242C1471.14 32.1 1472.09 31.863 1472.64 32.4727C1472.97 32.5066 1473.31 32.5066 1473.65 32.5066C1474.2 33.1163 1475.11 32.8791 1475.66 33.455C1476 33.4888 1476.34 33.4889 1476.68 33.5228C1477.22 34.1325 1478.14 33.8955 1478.68 34.4713C1479.02 34.5052 1479.36 34.5389 1479.67 34.5389C1480.21 35.1486 1481.19 34.8777 1481.74 35.5213C1482.04 35.5552 1482.35 35.5889 1482.65 35.555C1483.03 35.8599 1483.44 36.1309 1483.74 36.5035C1484.05 36.5374 1484.39 36.5713 1484.69 36.5374C1485.03 36.8423 1485.44 37.1132 1485.78 37.4858C1486.08 37.5196 1486.42 37.5536 1486.73 37.5536C1487.07 37.8584 1487.48 38.1295 1487.82 38.5021C1488.12 38.536 1488.43 38.5697 1488.77 38.5697C1489.14 38.8745 1489.52 39.1795 1489.85 39.5521H1489.89C1490.19 39.9586 1490.43 40.3988 1490.5 40.873C1489.85 45.8183 1485.98 48.9686 1483.5 52.8639C1474.47 67.1918 1465.81 81.6891 1459.63 97.5413C1458 101.674 1454.26 104.316 1452.26 108.279C1441.86 128.534 1430.21 148.112 1419.55 168.233C1418.53 170.163 1417.34 171.992 1415.37 173.178C1411.06 174.092 1408.27 171.146 1405.15 169.113C1402.33 165.963 1394.98 168.081 1394.37 163C1393.99 162.458 1393.34 161.974 1392.87 161.5C1391.16 160.463 1392.87 161.5 1390.1 158.782C1389.49 159.764 1395.52 163.369 1394.67 164.08C1389.44 168.517 1385.96 174.288 1382.67 180.08C1381.99 181.299 1381.17 191.08 1377.17 188.58C1373.17 186.08 1370.3 179.004 1369.69 176.938C1369.15 175.21 1369.9 173.178 1368.37 171.721Z" fill="#FECF83" fill-opacity="0.85"/>
<path d="M1462.6 275.99C1462.67 278.889 1461.15 280.069 1458.38 280.001C1456.41 279.968 1454.49 280.001 1452.52 280.001C1452.19 280.406 1451.85 280.406 1451.51 280.001C1451.51 257.82 1451.51 235.639 1451.47 213.458C1451.47 211.503 1451.98 209.413 1450.49 207.694C1450.19 207.323 1449.78 207.053 1449.48 206.683C1448.8 206.345 1448.13 206.008 1447.45 205.671C1447.15 205.301 1446.74 205.031 1446.43 204.694C1446.1 204.694 1445.76 204.694 1445.42 204.694C1445.12 204.323 1444.71 204.053 1444.41 203.683C1444.07 203.683 1443.73 203.683 1443.39 203.683C1443.09 203.312 1442.68 203.042 1442.38 202.671C1441.7 202.334 1441.02 201.997 1440.35 201.66C1440.04 201.289 1439.64 201.019 1439.33 200.649C1438.99 200.649 1438.65 200.649 1438.32 200.649C1438.01 200.278 1437.61 200.008 1437.3 199.637C1436.96 199.637 1436.62 199.637 1436.29 199.637C1435.98 199.267 1435.61 198.997 1435.27 198.626C1434.93 198.289 1434.56 197.985 1434.26 197.615C1433.58 197.615 1432.9 197.615 1432.23 197.615C1431.92 197.985 1431.52 198.255 1431.21 198.592C1430.2 199.267 1429.18 199.941 1428.2 200.615C1427.9 200.986 1427.49 201.255 1427.19 201.626C1426.85 201.626 1426.51 201.626 1426.17 201.626C1425.87 201.997 1425.46 202.233 1425.16 202.604C1424.82 202.604 1424.48 202.604 1424.14 202.604C1423.84 202.975 1423.43 203.211 1423.13 203.581C1421.77 203.918 1420.46 204.255 1419.1 204.593C1418.59 205.233 1417.61 204.93 1417.11 205.57C1416.43 205.57 1415.75 205.57 1415.08 205.57C1414.6 205.941 1414.1 206.109 1413.52 206.042C1409.87 206.042 1406.21 206.042 1402.56 206.042C1401.99 206.076 1401.44 205.907 1401 205.537C1400.67 205.537 1400.33 205.537 1399.99 205.537C1401 200.21 1403.37 195.39 1406.82 191.345C1410.17 187.434 1413.52 183.591 1415.52 178.771C1416.36 176.715 1417.65 175.029 1419.91 174.321C1427.19 175.029 1434.05 177.591 1441.09 179.378C1444.78 180.322 1444.1 183.49 1443.02 186.356C1441.06 191.648 1443.9 194.985 1449.92 194.513C1451 192.525 1450.87 190.367 1450.9 188.21C1451 180.861 1453.47 179.175 1460.95 181.232C1464.06 183.457 1463.42 186.828 1463.48 189.929C1463.65 195.693 1463.62 195.727 1468.49 193.064C1470.42 192.019 1472.31 190.94 1474.65 191.311C1476.61 192.019 1478.16 193.03 1477.59 195.525C1474.24 199.098 1469.94 201.458 1465.75 203.817C1462.5 205.604 1461.39 207.863 1461.39 211.436C1461.52 230.954 1461.45 250.505 1461.45 270.023C1461.59 272.181 1461.59 274.169 1462.6 275.99Z" fill="#FECF83" fill-opacity="0.85"/>
<path d="M1524.16 134.626C1524.1 134.932 1524.06 135.238 1524.06 135.544C1523.79 135.918 1523.53 136.258 1523.22 136.598C1523.16 136.939 1523.12 137.279 1523.06 137.619C1522.45 138.197 1522.69 139.149 1522.08 139.693C1521.48 140.237 1521.68 141.156 1521.08 141.7C1520.47 142.244 1520.68 143.196 1520.04 143.706L1520.07 143.672C1519.77 144.012 1519.47 144.352 1519.23 144.726L1519 144.692C1516.35 145.883 1514.37 143.774 1512.16 143.094C1510.15 142.482 1508.27 141.496 1506.09 141.666C1502.84 141.054 1499.95 142.686 1496.87 143.196C1496.16 143.4 1495.43 143.536 1494.69 143.672C1493.72 143.876 1492.71 144.012 1491.71 144.012C1490.93 144.012 1490.16 143.842 1489.49 143.468C1486.71 140.952 1487.92 138.129 1489.22 135.646C1494.45 125.852 1499.28 115.853 1504.95 106.331C1509.58 98.5092 1513.13 90.1091 1518.06 82.4912C1519.4 80.3827 1520.37 77.2539 1524.03 78.8863C1524.1 79.1924 1524.13 79.4645 1524.13 79.7706C1524.67 80.3827 1524.43 81.335 1525.07 81.9131C1525.14 82.2192 1525.17 82.4911 1525.14 82.7972C1525.64 83.4093 1525.44 84.3616 1526.04 84.9397C1526.11 85.2458 1526.14 85.5519 1526.11 85.858C1526.75 86.6402 1527.52 87.2864 1527.92 88.2386C1528.12 88.8508 1528.02 89.4628 1527.95 90.041C1528.15 92.1155 1527.65 94.2922 1529.03 96.1626C1529.53 107.419 1528.96 118.574 1526.04 129.491C1526.21 130.681 1525.77 131.633 1525.04 132.517C1524.5 133.13 1524.73 134.048 1524.16 134.626Z" fill="#FECF83" fill-opacity="0.85"/>
<path d="M1492.87 139.594C1493.55 139.594 1494.23 139.594 1494.9 139.594C1497.57 138.811 1500.27 138.777 1502.94 139.594C1512 141.5 1527.49 146.849 1525.5 151.072C1523.44 155.5 1519.51 162.198 1518.5 167C1517.79 170.372 1512.58 179.264 1511.5 182.5C1509.47 188.699 1513 206.5 1502.5 203C1499.5 203 1478.64 195.995 1476.72 194.394C1476.01 193.066 1474.99 192.044 1473.71 191.329C1469.25 189.524 1468.03 185.437 1467.19 181.316C1466.82 179.545 1466.44 177.74 1465.94 176.003C1465.5 173.312 1465.5 170.622 1465.87 167.965C1466.04 167.011 1466.31 166.058 1466.58 165.104C1466.75 164.457 1466.95 163.844 1467.19 163.197C1467.46 162.447 1467.76 161.698 1468.07 160.949C1468.17 160.574 1468.3 160.234 1468.47 159.893C1468.67 159.382 1468.91 158.906 1469.18 158.429C1469.32 158.088 1469.49 157.782 1469.65 157.509C1469.89 157.032 1470.13 156.589 1470.36 156.147C1470.5 155.806 1470.63 155.5 1470.8 155.193C1471.04 154.682 1471.28 154.206 1471.51 153.729C1471.65 153.354 1471.85 153.013 1472.02 152.673C1472.19 152.298 1472.39 151.958 1472.63 151.617C1472.73 151.413 1472.87 151.276 1472.97 151.072C1473.17 150.663 1473.44 150.323 1473.71 149.982C1477.83 145.384 1482.06 140.957 1488.82 140.684C1489.49 140.684 1490.17 140.65 1490.81 140.65C1491.39 139.969 1492.37 140.242 1492.87 139.594Z" fill="#E3A476"/>
<path d="M1532.16 157.481C1532.2 157.82 1532.27 158.16 1532.3 158.5C1532.6 158.839 1532.87 159.213 1533.15 159.552C1533.21 160.232 1533.28 160.877 1533.35 161.556C1533.62 161.896 1533.86 162.269 1534.16 162.609C1534.23 163.628 1534.3 164.613 1534.36 165.632C1534.74 166.243 1534.67 166.922 1534.7 167.601C1534.84 169.401 1534.4 171.201 1535.01 172.967C1535.08 173.171 1535.18 173.375 1535.24 173.579C1534.87 175.209 1534.47 176.839 1534.16 178.503C1531.96 190.764 1520.04 202.277 1506.63 203.567C1504.54 203.771 1503.52 202.752 1504.13 200.511C1504.81 197.929 1505.92 195.45 1506.94 192.971C1510.97 183.02 1514.86 173.001 1519.13 163.152C1521.16 158.466 1522.34 153.27 1526.07 149.398C1526.44 148.956 1526.78 148.99 1527.12 149.466L1527.08 149.398C1527.76 149.873 1527.52 150.858 1528.2 151.334L1528.24 151.368C1528.57 151.707 1528.88 152.047 1529.15 152.421C1529.52 153.1 1529.9 153.779 1530.27 154.458C1530.57 154.798 1530.88 155.137 1531.18 155.477C1531.25 155.817 1531.28 156.156 1531.35 156.496C1531.59 156.836 1531.89 157.141 1532.16 157.481Z" fill="#E3A476" fill-opacity="0.85"/>
<path d="M1420.17 174.162C1418.54 175.664 1417.8 177.575 1416.85 179.554C1414.64 184.195 1411.96 188.802 1407.68 191.976C1406.25 193.034 1405.07 193.887 1405.51 196.003C1405.88 197.812 1404.66 199.177 1403.54 200.439C1402.35 201.838 1401.13 203.238 1399.91 204.603C1399.23 204.603 1398.55 204.603 1397.87 204.603C1397.56 204.227 1397.16 203.954 1396.85 203.579C1395.49 203.238 1394.17 202.896 1392.81 202.555C1392.51 202.18 1392.1 201.907 1391.79 201.531C1391.45 201.531 1391.11 201.531 1390.78 201.531C1390.47 201.156 1390.06 200.883 1389.76 200.508C1389.08 200.166 1388.4 199.825 1387.72 199.484C1387.41 199.108 1387.01 198.835 1386.7 198.46C1386.02 198.119 1385.34 197.777 1384.7 197.436C1382.9 194.672 1384.29 192.181 1385.55 189.894C1389.76 182.216 1395.12 175.322 1400.08 168.156C1401.64 165.904 1403.88 164.231 1406.93 165.938C1409.96 167.644 1413.01 169.316 1416.03 171.023C1418.37 170.92 1420.27 171.159 1420.17 174.162Z" fill="#E3A476" fill-opacity="0.85"/>
<path d="M1407.06 166.268C1404.69 166.674 1402.59 167.69 1401.42 169.859C1397.92 176.295 1393.22 181.851 1389.38 188.051C1387.55 191.032 1386.11 194.182 1385.21 197.536C1382.21 195.402 1379.71 192.827 1378.18 189.338C1377.58 187.983 1377.64 186.967 1378.51 185.645C1383.05 178.734 1387.35 171.722 1391.92 164.845C1393.58 162.304 1394.72 159.086 1398.12 158.171C1401.12 160.881 1404.09 163.557 1407.06 166.268Z" fill="#FECF83" fill-opacity="0.85"/>
<path d="M1416.4 195.518C1420.25 195.518 1424.09 195.518 1427.97 195.518C1428.23 195.753 1428.29 195.955 1428.23 196.191C1428.13 196.426 1428.07 196.527 1427.97 196.527C1424.13 196.527 1420.28 196.527 1416.43 196.527C1416.18 196.291 1416.08 196.089 1416.18 195.854C1416.24 195.618 1416.34 195.518 1416.4 195.518Z" fill="#E3A476"/>
<path d="M1431.28 195.518C1431.79 194.857 1432.51 194.578 1433.3 194.509C1432.79 195.17 1432.1 195.449 1431.28 195.518Z" fill="#E3A476"/>
<path d="M1521.11 144.04C1521.46 144.364 1521.77 144.689 1522.12 145.049C1521.77 144.725 1521.43 144.364 1521.11 144.04Z" fill="#E3A476"/>
<path d="M1537.26 137.984C1537.59 138.321 1537.95 138.657 1538.27 138.994C1537.91 138.691 1537.59 138.321 1537.26 137.984Z" fill="#E3A476"/>
<path d="M1416.14 195.518C1416.14 195.854 1416.14 196.19 1416.14 196.527C1415.8 196.19 1415.47 195.854 1415.13 195.518C1415.5 195.518 1415.8 195.518 1416.14 195.518Z" fill="#E3A476"/>
<path d="M1428.25 196.527C1428.25 196.19 1428.25 195.854 1428.25 195.518C1428.59 195.518 1428.92 195.518 1429.26 195.518C1428.92 195.854 1428.59 196.19 1428.25 196.527Z" fill="#E3A476"/>
<path d="M271.725 202.412C271.725 207.479 271.725 212.512 271.691 217.579C271.657 227.374 271.657 237.202 271.623 246.996C268.038 246.35 268.585 243.425 268.55 241.079C268.346 230.706 268.55 220.3 268.414 209.928C268.38 207.751 269.131 205.064 266.093 203.942C251.892 202.412 240.661 195.95 233.322 183.606C230.522 178.878 227.723 173.879 229.908 167.962C229.908 164.935 229.908 161.874 229.908 158.848C229.191 157.827 229.157 156.807 229.976 155.821C231.137 154.699 230.932 153.202 230.966 151.808C231.581 151.264 231.307 150.278 231.956 149.768C231.956 149.428 231.99 149.121 231.956 148.781C232.297 148.475 232.57 148.067 232.946 147.761C232.98 147.421 232.98 147.081 232.98 146.775C233.39 146.401 233.424 145.925 233.39 145.415C233.39 145.074 233.492 144.768 233.765 144.53C234.141 144.19 234.653 144.088 234.994 143.714C235.028 143.374 235.028 143.068 235.028 142.728C235.37 142.388 235.677 142.014 236.018 141.674C236.36 141.334 236.701 140.994 237.008 140.654C237.042 140.313 237.042 140.007 237.042 139.667C237.384 139.327 237.691 138.953 238.066 138.613C238.408 138.273 238.749 137.933 239.091 137.593C239.432 137.253 239.773 136.913 240.115 136.573C240.456 136.232 240.797 135.892 241.139 135.552C241.48 135.212 241.822 134.872 242.163 134.532C242.504 134.192 242.846 133.852 243.187 133.512C243.528 133.172 243.87 132.832 244.211 132.492C244.518 132.117 244.928 131.811 245.269 131.471C245.611 131.471 245.918 131.471 246.259 131.437C246.566 131.097 246.942 130.791 247.283 130.451C247.625 130.077 248 129.771 248.342 129.431C248.683 129.431 248.99 129.431 249.332 129.397C249.639 129.057 250.014 128.751 250.356 128.411C250.629 128.139 250.97 127.969 251.38 127.901C251.789 127.833 252.131 127.696 252.438 127.424C252.779 127.424 253.087 127.424 253.428 127.39C253.974 126.778 254.93 127.016 255.476 126.404C255.749 126.132 256.056 125.86 256.364 125.656C257.081 125.384 257.9 125.248 258.617 124.976C258.992 124.908 259.402 124.908 259.777 124.908C260.733 124.806 261.757 125.18 262.577 124.398C264.249 124.398 265.956 124.364 267.629 124.364C268.653 123.683 269.643 123.683 270.667 124.364C272.032 124.364 273.364 124.398 274.729 124.398C275.583 125.248 276.982 124.432 277.801 125.384C278.143 125.384 278.484 125.418 278.826 125.418C279.338 126.064 280.328 125.792 280.84 126.404C281.522 126.404 282.171 126.438 282.854 126.438C283.195 126.778 283.605 127.05 283.912 127.424C284.253 127.458 284.561 127.458 284.902 127.458C285.346 127.867 285.824 127.901 286.37 127.731C286.745 127.697 287.087 127.765 287.394 127.901C287.701 128.105 287.974 128.309 288.281 128.513C288.589 128.717 288.862 128.921 289.135 129.125C289.51 129.499 289.613 130.077 289.988 130.451C290.33 130.791 290.637 131.131 290.978 131.437C298.283 136.573 302.824 143.714 306.237 151.74C307.842 152.658 307.978 154.359 308.559 155.855C308.661 156.399 308.729 156.909 308.763 157.453C308.832 161.194 308.797 164.969 308.797 168.71C308.832 169.22 308.832 169.73 308.866 170.206C308.797 171.159 308.524 172.077 308.285 172.995C308.149 173.607 307.91 174.219 307.705 174.831C307.432 175.58 307.125 176.328 306.852 177.076C306.749 177.45 306.613 177.79 306.442 178.164C306.237 178.674 305.998 179.184 305.759 179.695C305.623 180.035 305.452 180.375 305.281 180.681C305.145 181.021 304.974 181.327 304.803 181.633C304.667 181.973 304.462 182.279 304.291 182.551C304.052 183.027 303.779 183.469 303.506 183.911C303.37 184.218 303.165 184.524 302.96 184.796C302.789 185.102 302.585 185.374 302.346 185.646C302.243 185.782 302.141 185.918 302.038 186.054C301.868 186.326 301.629 186.598 301.424 186.87C301.458 186.87 301.117 187.278 301.117 187.278C300.946 187.584 300.741 187.857 300.536 188.095C300.366 188.401 300.161 188.673 299.922 188.911C299.717 189.217 299.512 189.455 299.273 189.727C299.171 189.863 299.034 189.999 298.932 190.101C298.727 190.373 298.454 190.611 298.215 190.849C298.113 190.985 297.976 191.087 297.84 191.223C297.601 191.495 297.362 191.733 297.089 191.971C296.986 192.107 296.85 192.21 296.713 192.346C296.474 192.618 296.201 192.856 295.962 193.06C295.826 193.196 295.689 193.298 295.552 193.4C295.314 193.638 295.006 193.842 294.733 194.046C294.46 194.284 294.187 194.454 293.88 194.658C293.607 194.862 293.334 195.066 293.061 195.27C292.924 195.372 292.787 195.474 292.651 195.576C292.378 195.814 292.105 195.984 291.832 196.188C291.422 196.494 290.978 196.8 290.569 197.073C290.295 197.277 289.988 197.447 289.681 197.617C289.374 197.787 289.067 197.957 288.759 198.127C288.623 198.229 288.452 198.297 288.281 198.365C287.974 198.535 287.633 198.671 287.291 198.807C286.984 199.011 286.643 199.181 286.336 199.351C285.994 199.521 285.653 199.657 285.277 199.759C284.731 199.929 284.185 200.099 283.605 200.031C283.229 199.929 282.854 199.861 282.478 199.793C281.898 199.759 281.318 199.827 280.874 200.269C280.567 200.575 280.191 200.779 279.781 200.949C278.996 201.29 278.348 201.936 277.494 202.208C276.573 202.378 275.787 201.868 274.9 201.8C273.807 202.038 272.681 201.528 271.725 202.412Z" fill="#FECF83"/>
<path d="M271.532 249.015C276.671 249.623 280.857 252.729 285.519 254.587C292.7 257.424 299.677 260.801 306.722 264.043C308.492 264.854 309.751 264.752 311.282 263.469C319.11 256.883 328.673 254.688 338.509 254.215C348.072 253.776 357.227 256.141 365.565 261.071C368.934 263.064 372 263.469 376 271.27C375.49 271.912 376 274.5 372 282C368 289.5 367.411 289.151 362 295.5C357.304 301.005 350.5 302 339.5 305.5C337.492 307.628 329.014 306.899 326.291 306.292C318.021 304.502 311.35 300.179 306.075 293.796C300.868 287.515 300.596 280.422 303.557 273.06C303.795 272.452 304.101 271.844 304.442 271.27C305.565 269.48 305.327 268.197 303.251 267.319C300.936 266.34 298.69 265.191 296.376 264.178C287.119 260.126 277.862 256.14 268.639 252.088C268.196 251.885 267.856 251.446 267.482 251.142C268.162 249.184 269.932 249.251 271.532 249.015Z" fill="#347A65"/>
<path d="M407.862 249.119C412.812 251.238 417.865 253.188 422.713 255.543C425.615 256.955 427.868 256.989 430.702 255.274C438.212 250.699 446.167 251.17 454.019 254.399C457 257 457 258.5 457.5 262.5C457.5 265.5 456.707 269.852 455 271.5C452.576 273.821 451 277 446.5 278.5C440 280 434.32 279.894 428.243 274.68C424.113 271.149 421.381 267.247 424.283 261.597C425.512 259.175 423.635 258.334 421.859 257.561C416.909 255.442 411.925 253.39 406.94 251.271C406.189 250.935 405.506 250.464 404.755 250.06C405.609 249.186 406.633 248.816 407.862 249.119Z" fill="#347A65"/>
<path d="M271.519 247.944C271.017 250.297 269.11 249.887 267.504 250.024C265.062 249.274 265.563 247.16 265.53 245.387C265.497 235.74 265.497 226.092 265.463 216.444C265.497 211.706 265.497 207.001 265.53 202.263C270.047 200.967 270.449 201.172 270.482 205.774C270.549 217.569 270.482 229.331 270.515 241.126C270.515 243.103 270.047 245.217 271.452 246.955C271.452 247.296 271.486 247.603 271.519 247.944Z" fill="#FECF83"/>
<path d="M408.02 248.035C407.169 248.975 405.998 249.042 404.826 249.009C404.791 243.671 404.791 238.334 404.755 232.997C404.791 230.009 404.791 227.022 404.826 224.034C406.494 221.819 407.843 222.893 409.156 224.403C410.576 226.887 409.405 228.969 408.056 231.016C408.056 231.688 408.056 232.393 408.056 233.064C408.304 233.265 408.411 233.5 408.304 233.702C408.198 233.903 408.127 234.004 408.02 234.004C408.02 238.703 408.02 243.369 408.02 248.035Z" fill="#FECF83"/>
<path d="M1459.07 30.0557C1452.65 29.1419 1447.38 30.2924 1445.81 37.7043C1435.85 55.7095 1426.06 73.7823 1415.82 91.652C1412.19 98.0148 1408.68 104.513 1405.22 110.943C1402.29 116.358 1398.86 121.537 1396.34 127.155C1394.74 130.675 1392.64 133.856 1390.49 137.037C1388.66 139.813 1386.38 141.403 1382.94 140.929C1383.18 139.203 1382.77 137.646 1382.09 136.056C1374.99 120.183 1374.17 103.768 1378.12 86.9815C1378.52 85.1878 1379.17 83.428 1379.07 81.5665C1379.65 80.9912 1379.44 80.0436 1380.05 79.5021C1380.67 78.9606 1380.43 78.0128 1381.04 77.5052C1381.07 77.1667 1381.07 76.8283 1381.11 76.4899C1381.72 75.9484 1381.48 75.0008 1382.13 74.4593C1382.71 73.9178 1382.54 72.9701 1383.15 72.4285C1383.76 71.887 1383.56 70.9395 1384.17 70.398C1384.78 69.8565 1384.58 68.9087 1385.19 68.3672C1385.77 67.8257 1385.6 66.8781 1386.21 66.3366H1386.18C1386.48 65.9643 1386.82 65.6597 1387.16 65.2875V65.2536C1387.77 64.7459 1387.57 63.7646 1388.22 63.2569C1388.52 62.9184 1388.9 62.5798 1389.2 62.2414V62.2077C1389.81 61.7001 1389.61 60.7185 1390.26 60.2108H1390.22C1390.53 59.8385 1390.9 59.534 1391.24 59.1955C1391.58 58.8571 1391.92 58.5187 1392.23 58.1803V58.1464C1392.87 57.6387 1392.64 56.6572 1393.28 56.1834H1393.25C1393.55 55.8111 1393.89 55.4727 1394.27 55.1681C1394.57 54.7958 1394.95 54.4574 1395.29 54.1528C1395.63 53.8143 1395.97 53.4757 1396.31 53.1373C1396.65 52.7988 1396.99 52.4604 1397.33 52.122C1397.67 51.7836 1398.01 51.4452 1398.35 51.1067C1398.69 50.7683 1399.03 50.4299 1399.37 50.0914C1399.71 49.753 1400.05 49.4146 1400.39 49.0761C1400.73 48.7377 1401.07 48.3991 1401.41 48.0607C1401.75 47.6884 1402.09 47.35 1402.43 47.0454C1402.73 46.6731 1403.14 46.3347 1403.52 46.0301C1403.82 46.0301 1404.16 45.9962 1404.47 45.9623C1404.81 45.6577 1405.15 45.3194 1405.45 44.9809C1405.79 44.6425 1406.13 44.3041 1406.47 43.9995C1406.81 43.6611 1407.15 43.2886 1407.53 42.984V43.0179C1407.8 42.7471 1408.14 42.5442 1408.51 42.4765C1408.89 42.4088 1409.23 42.2395 1409.53 41.9687C1409.87 41.5964 1410.25 41.2919 1410.62 40.9873C1410.96 40.9873 1411.27 40.9534 1411.61 40.9196C1411.95 40.615 1412.29 40.2766 1412.59 39.972C1413.14 39.3628 1414.09 39.5659 1414.6 38.9567C1414.94 38.6183 1415.31 38.3136 1415.69 37.9751C1415.99 37.9751 1416.33 37.9751 1416.64 37.9413C1416.95 37.569 1417.35 37.2983 1417.69 36.9937C1418.03 36.9937 1418.34 36.9937 1418.68 36.9598C1418.99 36.5876 1419.39 36.3167 1419.73 36.0121C1420.07 36.0121 1420.38 36.0123 1420.69 35.9784C1420.99 35.6062 1421.4 35.3353 1421.74 35.0307C1422.05 35.0307 1422.39 35.0307 1422.69 34.9968C1423.24 34.3876 1424.19 34.5908 1424.73 34.0154C1425.55 33.0678 1426.94 33.9478 1427.76 33.0001C1428.57 32.0525 1430 32.9323 1430.82 31.9846C1431.16 31.9846 1431.5 31.951 1431.84 31.951C1432.38 31.3418 1433.34 31.6124 1433.88 31.0032C1434.56 30.9694 1435.21 30.9693 1435.89 30.9355C1436.74 30.0555 1438.1 30.9017 1438.95 29.9879C1439.29 29.9879 1439.59 29.9879 1439.93 29.9541C1441.8 28.7018 1444.15 30.2249 1446.05 28.9727C1450.4 28.9727 1454.76 28.9727 1459.14 28.9727C1459.69 29.3788 1459.69 29.6834 1459.07 30.0557Z" fill="#FECF83" fill-opacity="0.85"/>
<path d="M229.126 168.222C228.756 168.573 228.386 168.924 228.017 169.275C227.758 168.678 227.351 168.081 227.24 167.45C227.056 166.502 226.834 165.203 228.313 165.238C229.348 165.238 229.015 166.502 229.089 167.239C229.126 167.555 229.126 167.906 229.126 168.222Z" fill="#E3A476"/>
<path d="M288.718 129.582C288.406 129.582 288.124 129.583 287.812 129.546C287.53 129.147 287.155 128.857 286.874 128.494C286.561 128.494 286.28 128.494 285.967 128.458C285.685 128.24 285.592 127.986 285.685 127.768C285.779 127.551 285.873 127.406 285.967 127.406C288.218 125.809 288.718 128.24 289.688 129.582C289.375 130.018 289.062 130.018 288.718 129.582Z" fill="#E3A476"/>
<path d="M256.506 126.847C256.127 126.847 255.748 126.881 255.369 126.881C255.938 124.56 258.059 124.963 259.876 124.862C260.596 125.199 260.596 125.535 259.876 125.838C259.498 125.838 259.119 125.872 258.778 125.872C258.172 126.477 257.112 126.208 256.506 126.847Z" fill="#E3A476"/>
<path d="M230.135 156.153C230.111 157.174 230.111 158.161 230.086 159.181C228.762 158.127 228.835 157.106 230.135 156.153Z" fill="#E3A476"/>
<path d="M277.575 125.868C276.465 125.893 275.355 125.818 274.547 125.148C274.884 125.148 275.22 125.148 275.59 125.123C275.927 124.775 276.263 124.775 276.6 125.123C276.936 125.396 277.273 125.619 277.575 125.868Z" fill="#E3A476"/>
<path d="M233.966 144.947C233.966 145.24 233.945 145.503 233.945 145.795C233.741 146.147 233.557 146.147 233.352 145.795C232.821 144.684 233.536 144.479 233.966 144.04C234.15 144.245 234.211 144.42 234.15 144.625C234.088 144.859 234.027 144.947 233.966 144.947Z" fill="#E3A476"/>
<path d="M259.407 125.866C259.407 125.52 259.407 125.174 259.407 124.862C260.416 124.862 261.426 124.862 262.435 124.862C261.628 125.797 260.551 125.901 259.407 125.866Z" fill="#E3A476"/>
<path d="M276.334 124.863C276.075 124.863 275.816 124.863 275.557 124.863C275.634 124.455 275.686 123.808 276.179 123.856C276.931 123.952 276.36 124.503 276.334 124.863Z" fill="#E3A476"/>
<path d="M270.51 124.863C269.489 124.863 268.502 124.863 267.482 124.863C268.502 123.517 269.489 123.517 270.51 124.863Z" fill="#E3A476"/>
<path d="M280.604 126.881C279.782 126.812 279.098 126.533 278.585 125.872C279.372 125.942 280.056 126.22 280.604 126.881Z" fill="#E3A476"/>
<path d="M255.369 126.881C254.865 127.542 254.158 127.821 253.351 127.89C253.889 127.229 254.596 126.95 255.369 126.881Z" fill="#E3A476"/>
<path d="M232.154 150.097C232.084 150.904 231.806 151.611 231.145 152.115C231.179 151.308 231.458 150.601 232.154 150.097Z" fill="#E3A476"/>
<path d="M234.173 145.049C234.173 144.713 234.173 144.377 234.173 144.04C234.521 144.04 234.834 144.04 235.182 144.04C234.834 144.377 234.521 144.713 234.173 145.049Z" fill="#E3A476"/>
<path d="M233.163 146.06C233.511 146.06 233.825 146.06 234.173 146.06C233.825 146.385 233.511 146.711 233.163 147.069C233.163 146.743 233.163 146.418 233.163 146.06Z" fill="#E3A476"/>
<path d="M283.632 127.89C283.306 127.542 282.98 127.229 282.622 126.881C282.98 127.194 283.306 127.542 283.632 127.89Z" fill="#E3A476"/>
<path d="M251.096 128.866C250.838 128.9 250.58 128.9 250.323 128.9C250.58 128.564 250.838 128.227 251.096 127.891C251.302 128.126 251.38 128.328 251.302 128.564C251.225 128.765 251.174 128.866 251.096 128.866Z" fill="#E3A476"/>
<path d="M251.332 128.9C251.332 128.552 251.332 128.239 251.332 127.891C251.658 127.891 252.016 127.891 252.341 127.925C251.983 128.239 251.658 128.587 251.332 128.9Z" fill="#E3A476"/>
<path d="M285.65 127.891C285.65 128.239 285.65 128.552 285.65 128.9C285.325 128.552 284.999 128.239 284.641 127.891C284.967 127.891 285.325 127.891 285.65 127.891Z" fill="#E3A476"/>
<path d="M416.581 182.992C419.201 185.321 422.06 187.41 423.897 190.561C431.146 203.061 425.19 219.877 409.673 222.788C408.822 222.959 408.04 223.198 407.427 223.781C406.44 223.198 405.42 223.233 404.433 223.781C402.867 222.24 400.621 222.787 398.784 222C391.774 218.917 386.874 214.089 385.138 206.417C384.39 203.027 384.356 199.636 385.172 196.246C385.206 195.903 385.206 195.595 385.206 195.252C385.819 194.705 385.547 193.711 386.193 193.198C386.227 192.889 386.227 192.547 386.227 192.239C386.567 191.896 386.874 191.519 387.214 191.177C387.486 190.903 387.656 190.561 387.724 190.15C387.792 189.773 387.963 189.431 388.235 189.157C388.575 188.814 388.915 188.472 389.256 188.129C389.596 187.787 389.936 187.444 390.277 187.102C390.617 186.759 390.957 186.451 391.297 186.074C391.638 185.732 391.978 185.389 392.318 185.047C392.659 184.704 392.999 184.362 393.339 184.019C393.85 183.403 394.837 183.608 395.347 182.992C395.687 182.65 396.062 182.341 396.402 181.999C396.708 181.999 397.048 181.999 397.355 181.964C397.899 181.314 398.852 181.588 399.396 180.971C399.737 180.971 400.077 180.971 400.383 180.937C403.514 179.875 406.713 180.697 409.877 180.458C410.49 180.423 411.034 180.595 411.511 180.937C411.851 180.971 412.157 180.971 412.498 180.971C413.042 181.588 413.995 181.348 414.539 181.964C415.05 182.615 416.071 182.307 416.581 182.992Z" fill="#FECF83"/>
<path d="M410.511 181.356C407.258 181.356 403.971 181.387 400.718 181.387C403.807 179.558 407.258 180.851 410.511 180.473C410.774 180.662 410.873 180.883 410.774 181.072C410.676 181.261 410.61 181.356 410.511 181.356Z" fill="#E3A476"/>
<path d="M274.547 201.582C274.547 201.928 274.547 202.238 274.547 202.584C273.549 202.584 272.552 202.584 271.519 202.584C272.345 201.582 273.446 201.548 274.547 201.582Z" fill="#E3A476"/>
<path d="M399.709 181.387C399.17 182.048 398.497 182.326 397.69 182.396C398.195 181.735 398.901 181.456 399.709 181.387Z" fill="#E3A476"/>
<path d="M414.849 182.396C414.042 182.326 413.335 182.048 412.83 181.387C413.638 181.456 414.344 181.735 414.849 182.396Z" fill="#E3A476"/>
<path d="M416.868 183.405C416.06 183.338 415.387 183.035 414.849 182.396C415.522 182.396 416.195 182.396 416.868 182.396C416.868 182.732 416.868 183.068 416.868 183.405Z" fill="#E3A476"/>
<path d="M395.671 183.405C395.158 184.045 394.474 184.347 393.652 184.415C394.131 183.775 394.85 183.473 395.671 183.405Z" fill="#E3A476"/>
<path d="M282.622 199.556C282.622 199.904 282.622 200.217 282.622 200.565C281.949 200.565 281.276 200.565 280.604 200.565C281.108 199.904 281.815 199.625 282.622 199.556Z" fill="#E3A476"/>
<path d="M410.812 181.362C410.812 181.023 410.812 180.717 410.812 180.378C411.148 180.717 411.485 181.056 411.821 181.362C411.485 181.396 411.148 181.396 410.812 181.362Z" fill="#E3A476"/>
<path d="M396.681 182.396C396.355 182.744 395.997 183.057 395.671 183.405C395.997 183.057 396.355 182.709 396.681 182.396Z" fill="#E3A476"/>
<path d="M392.643 185.425C392.307 185.761 391.97 186.098 391.634 186.434C391.97 186.064 392.307 185.728 392.643 185.425Z" fill="#E3A476"/>
<path d="M389.615 188.452C389.279 188.789 388.942 189.125 388.606 189.462C388.976 189.125 389.279 188.789 389.615 188.452Z" fill="#E3A476"/>
<path d="M388.606 189.462C388.572 189.726 388.572 189.99 388.538 190.254C388.236 190.544 387.899 190.544 387.596 190.254C387.933 189.99 388.269 189.726 388.606 189.462Z" fill="#E3A476"/>
<path d="M1514.98 60.2687C1518.32 64.2622 1520.22 69.1695 1523.12 73.4337C1523.46 74.7874 1523.8 76.1071 1524.14 77.4608C1522.68 77.5962 1521.69 78.4086 1521.04 79.7285C1518.32 85.2787 1514.57 90.2873 1512.22 96.0745C1511.67 97.462 1510.85 98.7821 1510.04 100.034C1505.71 106.6 1502.2 113.639 1498.45 120.509C1495.86 125.213 1493.17 129.816 1490.65 134.554C1489.63 136.517 1487.89 138.548 1489.66 140.984C1487.48 143.083 1484.52 143.827 1482.1 145.587C1479.54 147.448 1477.23 149.479 1475.42 152.051C1475.08 152.389 1474.77 152.728 1474.43 153.066C1474.09 153.405 1473.79 153.777 1473.41 154.081C1473.41 154.42 1473.41 154.758 1473.38 155.097C1473 155.401 1472.76 155.808 1472.39 156.112C1472.39 156.451 1472.39 156.789 1472.36 157.127C1472.02 157.466 1471.71 157.804 1471.37 158.143C1471.37 158.481 1471.37 158.819 1471.33 159.158C1470.96 159.463 1470.72 159.869 1470.35 160.173C1470.35 160.512 1470.35 160.85 1470.35 161.189C1469.7 161.73 1469.97 162.678 1469.36 163.219C1469.36 163.896 1469.36 164.573 1469.32 165.25C1468.71 165.791 1468.95 166.739 1468.34 167.28C1468.34 170.292 1468.34 173.304 1468.34 176.35C1468.64 181.427 1466.9 182.645 1461.22 181.393C1451.06 181.46 1452.19 180.378 1452.05 190.361C1452.02 192.764 1452.8 195.336 1451.06 197.536C1449.39 196.081 1449.05 194.152 1449.02 192.053C1448.92 187.586 1449.36 183.22 1446.29 179.125C1444.18 176.283 1446.33 172.966 1447.89 170.191C1454.16 158.887 1460.16 147.414 1466.5 136.145C1478.18 115.365 1489.53 94.3824 1501.04 73.5351C1503.33 69.4063 1505.68 65.3451 1508.91 61.8592C1510.31 60.3702 1511.57 58.7119 1514.02 59.4226C1514.4 59.5919 1514.7 59.9303 1514.98 60.2687Z" fill="#FECF83" fill-opacity="0.85"/>
<path d="M1524.81 87.0468C1524.42 86.6355 1524.04 86.2616 1523.65 85.8503C1522.78 84.7659 1522.78 83.6816 1523.65 82.5972C1524.94 81.5128 1525.8 82.0364 1526.54 83.1207C1527.7 85.0277 1526.71 86.1868 1524.81 87.0468Z" fill="#E3A476"/>
<path d="M1526.16 79.4416C1525.44 78.9289 1525.19 78.2239 1525.15 77.4229C1525.84 77.9676 1526.12 78.6725 1526.16 79.4416Z" fill="#E3A476"/>
<path d="M1527.17 82.4689C1526.46 81.9562 1526.16 81.2513 1526.16 80.4502C1526.83 80.9949 1527.13 81.6999 1527.17 82.4689Z" fill="#E3A476"/>
<path d="M1526.16 129.909C1526.16 128.786 1526.29 127.697 1527.17 126.881C1528.28 126.881 1529.39 126.949 1530.2 127.902C1528.85 128.548 1527.51 129.228 1526.16 129.909Z" fill="#E3A476"/>
<path d="M1525.15 131.929C1525.19 131.142 1525.49 130.458 1526.16 129.91C1526.12 130.697 1525.82 131.381 1525.15 131.929Z" fill="#E3A476"/>
<path d="M1523.13 136.975C1523.2 136.181 1523.48 135.486 1524.14 134.956C1524.07 135.75 1523.79 136.445 1523.13 136.975Z" fill="#E3A476"/>
<path d="M1522.12 138.993C1522.19 138.172 1522.49 137.488 1523.13 136.975C1523.03 137.762 1522.76 138.48 1522.12 138.993Z" fill="#E3A476"/>
<path d="M1521.11 141.013C1521.21 140.192 1521.5 139.507 1522.12 138.994C1522.03 139.781 1521.76 140.5 1521.11 141.013Z" fill="#E3A476"/>
<path d="M1574.44 299.28C1574.17 300.415 1573.96 301.549 1573.62 302.65C1573.03 304.352 1572.01 304.986 1570.12 304.185C1565.81 302.317 1561.56 300.281 1556.97 299.013C1555.15 298.513 1554.98 297.378 1556.28 296.077C1558.16 294.175 1560.12 292.34 1562.04 290.471C1563.48 289.103 1564.98 289.003 1566.52 290.337C1568.92 292.44 1570.91 294.909 1573.69 296.611C1574.64 297.245 1574.78 298.246 1574.44 299.28Z" fill="#124838"/>
<path d="M1555.25 307.558C1559.64 309.368 1564.03 311.112 1568.38 312.99C1569.41 313.426 1570.41 314.13 1571.24 314.901C1572.74 316.31 1572.84 318.154 1572.27 319.965C1571.71 321.809 1569.95 321.474 1568.52 321.541C1559.67 321.977 1559.64 321.977 1556.35 313.728C1555.62 311.95 1555.05 310.073 1554.42 308.262C1554.69 308.027 1554.99 307.792 1555.25 307.558Z" fill="#124838"/>
<path d="M1459.56 180.443C1461.12 179.859 1462.64 179.173 1464.24 178.693C1465.93 178.178 1466.67 177.08 1466.61 175.33C1468.03 178.898 1468.3 182.81 1470.26 186.241C1471.07 187.682 1471.78 189.226 1472.66 190.667C1469.38 191.216 1467.11 193.652 1464.4 195.265C1460.75 197.461 1459.67 196.912 1459.6 192.657C1459.5 188.574 1459.56 184.491 1459.56 180.443Z" fill="#124838"/>
<path d="M1444.47 180.443C1446.02 179.859 1447.55 179.173 1449.14 178.693C1450.83 178.178 1451.57 177.08 1451.51 175.33C1452.93 178.898 1453.2 182.81 1455.16 186.241C1455.97 187.682 1456.69 189.226 1457.57 190.667C1454.28 191.216 1452.01 193.652 1449.31 195.265C1445.65 197.461 1444.57 196.912 1444.5 192.657C1444.4 188.574 1444.47 184.491 1444.47 180.443Z" fill="#124838"/>
<path d="M1452.45 180.93C1450.78 180.291 1449.14 179.539 1447.42 179.013C1445.6 178.449 1444.8 177.247 1444.87 175.33C1443.34 179.238 1443.05 183.523 1440.93 187.28C1440.06 188.859 1439.29 190.55 1438.35 192.128C1441.88 192.729 1444.32 195.397 1447.24 197.164C1451.18 199.569 1452.34 198.967 1452.42 194.308C1452.53 189.836 1452.45 185.364 1452.45 180.93Z" fill="#124838"/>
<path d="M307.795 166.249C307.764 167.673 307.985 169.165 306.847 170.284C306.847 165.91 306.847 161.536 306.847 157.162C308.586 160.044 307.479 163.231 307.795 166.249Z" fill="#E3A476"/>
<path d="M256.379 126.881C256.883 126.22 257.59 125.942 258.397 125.872C257.859 126.533 257.186 126.812 256.379 126.881Z" fill="#E3A476"/>
<path d="M306.847 171.293C306.775 172.1 306.487 172.773 305.838 173.312C305.874 172.504 306.162 171.798 306.847 171.293Z" fill="#E3A476"/>
<path d="M305.838 175.33C305.768 176.138 305.49 176.844 304.828 177.349C304.898 176.541 305.176 175.835 305.838 175.33Z" fill="#E3A476"/>
<path d="M279.594 200.565C279.594 200.914 279.594 201.227 279.594 201.575C278.932 201.575 278.27 201.575 277.575 201.575C278.105 200.913 278.8 200.6 279.594 200.565Z" fill="#E3A476"/>
<path d="M284.641 199.555C284.315 199.555 283.99 199.555 283.632 199.555C283.957 199.231 284.315 198.87 284.641 198.546C284.641 198.87 284.641 199.231 284.641 199.555Z" fill="#E3A476"/>
<path d="M385.578 196.527C385.578 199.892 385.578 203.256 385.548 206.621C384.237 203.256 384.237 199.892 385.578 196.527Z" fill="#E3A476"/>
<path d="M386.587 193.5C386.517 194.308 386.239 195.014 385.578 195.519C385.612 194.711 385.891 194.005 386.587 193.5Z" fill="#E3A476"/>
<path d="M387.631 190.471C387.944 190.471 388.292 190.471 388.606 190.471C388.258 190.807 387.944 191.144 387.596 191.48C387.631 191.11 387.631 190.774 387.631 190.471Z" fill="#E3A476"/>
<path d="M387.596 191.481C387.248 191.807 386.935 192.165 386.587 192.491C386.935 192.165 387.283 191.84 387.596 191.481Z" fill="#E3A476"/>
<path d="M301.892 72.7376C303.269 71.5356 302.627 69.7478 303.086 68.2684C306.513 56.864 314.469 50.2679 326.312 49.4974C328.577 49.3432 329.893 48.4494 331.117 46.6309C340.022 33.3155 353.089 27.2125 368.42 25.3015C369.797 25.1166 371.358 25.1782 372.643 25.6406C375 26.5036 376.836 25.7947 378.549 24.346C390.515 14.267 404.5 9.33541 419.892 9.82857C439.661 10.4758 456.125 18.7055 468.518 34.5175C471.456 38.2471 473.996 40.3738 479.749 39.4183C501.538 35.7812 519.44 54.4598 518.797 72.7068C518.675 72.8918 518.583 73.1384 518.583 73.3541C502.15 73.3541 485.747 73.3849 469.314 73.3849C413.466 73.3541 357.648 73.3541 301.8 73.3233C301.953 73.1383 301.953 72.9534 301.892 72.7376Z" fill="#FFF0D3"/>
<path d="M300.883 73.3848C357.002 73.412 413.09 73.4393 469.209 73.4393C485.721 73.4393 502.203 73.4394 518.716 73.4121C519.085 73.5212 519.454 73.6576 519.823 73.7667C519.823 73.9304 519.823 74.1213 519.823 74.285C518.808 74.3395 517.824 74.3941 516.81 74.3941C445.808 74.3941 374.806 74.3941 303.804 74.3941C302.79 74.3941 301.806 74.3123 300.791 74.285C300.791 74.1213 300.822 73.9577 300.852 73.794C300.975 73.6849 300.975 73.5484 300.883 73.3848Z" fill="#E3A476"/>
<path d="M519.964 73.3844C519.581 73.2715 519.197 73.1303 518.814 73.0174C518.814 72.7916 518.878 72.594 519.037 72.4246C523.511 72.4528 527.984 72.3964 532.458 72.5375C533.64 72.5657 535.206 71.8036 535.973 73.3561C530.605 73.3561 525.268 73.3561 519.964 73.3844Z" fill="#E3A476"/>
<path d="M301.756 72.4896C301.82 72.6388 301.82 72.8127 301.724 72.9619C301.82 73.111 301.82 73.2352 301.692 73.3844C296.355 73.3595 290.987 73.3098 285.65 73.285C288.654 71.5701 292.009 72.8625 295.205 72.5642C297.346 72.3654 299.551 72.5145 301.756 72.4896Z" fill="#E3A476"/>
<path d="M285.65 73.3848C291.023 73.4181 296.428 73.4847 301.8 73.5181C301.768 73.7181 301.768 73.9181 301.736 74.1181C296.395 73.9181 290.958 75.2514 285.65 73.3848Z" fill="#E3A476"/>
<path d="M519.853 73.4516C524.9 73.4182 529.947 73.4182 534.964 73.3848C529.977 75.2562 524.87 73.9195 519.823 74.0866C519.823 73.8861 519.823 73.6521 519.853 73.4516Z" fill="#E3A476"/>
<path d="M893.568 52.0464C896.092 56.0005 897.57 60.297 897.292 65.0917C896.154 65.1851 895.046 65.3097 893.907 65.3097C872.854 65.2163 851.802 65.0606 830.749 64.9983C802.002 64.9361 773.285 64.9672 744.538 64.9361C741.644 64.9361 738.72 64.8427 735.827 64.7804C736.35 60.8575 736.627 56.8722 737.797 53.0738L893.568 52.0464ZM737.828 53.105C738.382 49.6491 738.659 41.772 745.03 35.4517L747.646 34.2063C747.646 34.2063 749.985 33.21 750.97 32.3071C760.204 23.8074 771.161 20.227 783.473 20.8497C788.428 21.0987 793.291 22.3753 797.846 24.4613C799.755 25.333 801.355 25.3019 803.14 24.3056C810.189 20.4138 817.76 18.5769 825.793 18.9193C837.274 19.4175 847.4 23.3093 855.772 31.4354C856.695 31.4042 864.452 37.4132 865.621 40.5889C867.806 46.5667 873.87 44.4185 883.288 45.8195C889.475 46.7536 892.953 51.5482 893.568 52.0153" fill="#FFF0D3"/>
<path d="M736.429 64.3008C739.312 64.3602 742.226 64.4492 745.109 64.4492C773.755 64.4789 802.37 64.4492 831.015 64.5086C851.993 64.5383 872.972 64.7164 893.95 64.8055C895.085 64.8055 896.189 64.657 897.324 64.5977C901.372 64.5977 905.39 64.5977 909.438 64.5977C909.438 64.8352 909.408 65.0726 909.408 65.3101C849.202 65.3101 788.997 65.3101 728.792 65.3101C728.792 64.9836 728.762 64.6571 728.762 64.3305C731.307 64.3008 733.884 64.3008 736.429 64.3008Z" fill="#E3A476"/>
<path d="M1514.05 60.2999C1511 62.5018 1508.76 65.5507 1506.97 68.6673C1499.41 81.9465 1492.16 95.3952 1484.78 108.742C1478.2 120.633 1471.63 132.523 1464.99 144.413C1462.52 148.817 1460.52 153.424 1457.91 157.76C1454.56 163.384 1451.68 169.278 1448.59 175.071C1447.38 177.34 1446.8 179.508 1449.68 181.067C1451.47 182.015 1451.47 183.743 1451.47 185.437C1451.47 189.807 1451.47 194.177 1451.47 198.547C1446.93 197.666 1443.55 194.651 1439.65 192.483C1438.53 191.873 1438.74 190.823 1439.21 189.841C1440.09 188.011 1441.04 186.25 1441.85 184.42C1443.01 181.846 1442.7 181.101 1439.99 180.559C1435.42 179.644 1430.74 179.204 1426.34 177.408C1424.34 176.595 1422.24 176.019 1420.17 175.342C1418.82 174.325 1417.49 173.309 1416.14 172.327C1419.9 165.247 1423.63 158.133 1427.45 151.087C1429.28 147.733 1431.22 144.481 1432.88 141.026C1435.31 135.944 1438.33 131.168 1441.21 126.324C1445.04 119.989 1449.1 113.722 1451.58 106.676C1452.69 103.525 1455.3 101.56 1457.2 99.0536C1457.81 98.2745 1458.96 97.8681 1459.13 96.8179C1460.59 88.5861 1465.16 81.8449 1469.26 74.8327C1471.87 70.3611 1473.87 65.5168 1476.54 61.0452C1480.37 54.6427 1484.2 48.1725 1489.32 42.6168C1489.96 41.9055 1490.33 40.9231 1490.84 40.0762C1491.15 40.11 1491.45 40.1777 1491.76 40.2116C1492.13 40.5165 1492.54 40.7537 1492.84 41.1602C1493.18 41.228 1493.52 41.2618 1493.86 41.3296C1494.16 41.6344 1494.47 41.9055 1494.77 42.2104C1495.14 42.5491 1495.58 42.7861 1495.86 43.1588C1496.16 43.1588 1496.47 43.1588 1496.8 43.1588C1497.31 43.8024 1497.99 44.1412 1498.77 44.2428C1499.11 44.5477 1499.48 44.8866 1499.82 45.1914C1500.16 45.5302 1500.5 45.8689 1500.84 46.1738C1501.17 46.4786 1501.51 46.7836 1501.85 47.0885C1506.46 51.0519 1510.97 55.0152 1514.05 60.2999Z" fill="#E3A476"/>
<path d="M1575 36.6404C1575.19 35.5741 1575.06 33.81 1575.62 33.558C1582.87 30.2429 1585.22 21.9455 1591.38 17.8743C1597.59 13.7644 1604.7 11.0503 1612.32 14.85C1615.11 16.2459 1616.35 14.947 1618.27 13.0083C1626.01 5.21497 1635.06 0 1646.5 0C1658.52 0.0193865 1667.98 5.40882 1675.21 14.4429C1677.81 17.6804 1680.27 18.5141 1683.99 18.4947C1694.87 18.4365 1702.29 25.784 1702.7 36.6598C1660.13 36.6598 1617.57 36.6404 1575 36.6404Z" fill="#FFDA91" fill-opacity="0.4"/>
<path d="M1650.11 832.386C1618.88 832.386 1587.65 832.386 1555 832.386C1558.77 828.084 1563.34 831.679 1565.08 828.32C1566.46 825.668 1566.49 822.309 1567.7 819.48C1572.68 807.635 1586.03 800.71 1598.52 803.303C1602.03 804.04 1604.38 803.628 1606.71 800.033C1617.56 783.149 1633.7 774.869 1653.36 774.044C1662.78 773.661 1672.15 775.753 1680.49 780.91C1682.56 782.177 1685 782.854 1687.3 783.797C1691.4 788.07 1695.61 792.254 1699.5 796.703C1701.8 799.326 1704.04 797.97 1706.22 797.175C1719.51 792.283 1731.26 795.23 1742.08 803.745C1742.87 804.364 1743.58 805.101 1744.29 805.837C1748.76 810.67 1750.8 818.272 1759.46 818.39C1760.99 818.419 1763.38 820.01 1764.18 822.073C1766.06 827.082 1768.45 831.237 1775.9 829.734C1773.34 833.093 1770.92 832.238 1768.92 832.238C1740.63 832.297 1712.32 832.209 1684.03 832.386C1681.44 832.386 1677.69 830.294 1676.34 834.831C1676.28 835.038 1675.13 835.185 1674.78 834.949C1666.97 829.469 1658.28 833.476 1650.11 832.386Z" fill="#FECF83"/>
<path d="M980 906.97C980.226 905.312 980.068 902.569 980.724 902.177C989.184 897.023 991.921 884.122 999.114 877.792C1006.35 871.401 1014.65 867.181 1023.54 873.089C1026.8 875.26 1028.25 873.24 1030.49 870.226C1039.51 858.108 1050.08 850 1063.42 850C1077.45 850.03 1088.49 858.41 1096.92 872.456C1099.96 877.49 1102.83 878.786 1107.17 878.756C1119.86 878.666 1128.52 890.09 1129 907C1079.33 907 1029.67 906.97 980 906.97Z" fill="#FFDA91" fill-opacity="0.4"/>
</svg>
